<svg width="974" height="491" xmlns="http://www.w3.org/2000/svg" xmlns:xlink="http://www.w3.org/1999/xlink" xml:space="preserve" overflow="hidden"><defs><clipPath id="clip0"><rect x="153" y="114" width="974" height="491"/></clipPath></defs><g clip-path="url(#clip0)" transform="translate(-153 -114)"><path d="M586.866 9.83363 584.055 9.83363 584.055 5.15061 586.866 5.15061 586.866 9.83363" fill="#FFFFFF" transform="matrix(1 0 0 -1.00015 153 834.283)"/><path d="M602.56 21.2121 605.229 21.2121 605.229 25.1925C605.229 28.7515 603.449 30.5771 599.843 30.5771L599.046 30.5771C595.392 30.5771 593.565 28.7515 593.565 25.0991L593.565 10.3488C593.565 6.74307 595.392 4.86938 599.046 4.86938L599.843 4.86938C603.449 4.86938 605.276 6.74307 605.276 10.3488L605.276 15.031 602.607 15.031 602.607 10.2555C602.607 8.33458 601.67 7.44612 599.796 7.44612L599.093 7.44612C597.219 7.44612 596.282 8.33458 596.282 10.2555L596.282 25.1925C596.282 27.1119 597.219 28.049 599.093 28.049L599.749 28.049C601.623 28.049 602.56 27.1119 602.56 25.1925L602.56 21.2121" fill="#FFFFFF" transform="matrix(1 0 0 -1.00015 153 834.283)"/><path d="M620.875 21.6806 623.5 21.6806 623.5 25.3331C623.5 28.7515 621.814 30.5771 618.253 30.5771L617.598 30.5771C613.99 30.5771 612.257 28.7515 612.257 25.2864L612.257 22.8974C612.257 20.4622 613.1 19.2459 615.068 17.9809L619.331 15.3122C620.455 14.6563 620.924 13.8131 620.924 12.5029L620.924 9.92753C620.924 8.24117 620.079 7.39893 618.301 7.39893L617.504 7.39893C615.724 7.39893 614.834 8.24117 614.834 9.92753L614.834 13.9547 612.21 13.9547 612.21 10.1149C612.21 6.74307 613.943 4.86938 617.504 4.86938L618.253 4.86938C621.814 4.86938 623.594 6.74307 623.594 10.1616L623.594 12.8308C623.594 15.2182 622.75 16.4833 620.736 17.7469L616.473 20.3698C615.35 21.0714 614.881 21.8679 614.881 23.2264L614.881 25.5205C614.881 27.2058 615.77 28.0957 617.551 28.0957L618.206 28.0957C620.034 28.0957 620.875 27.2058 620.875 25.5205L620.875 21.6806" fill="#FFFFFF" transform="matrix(1 0 0 -1.00015 153 834.283)"/><path d="M630.855 5.15061 633.572 5.15061 633.572 30.2964 630.855 30.2964ZM630.809 33.2945 633.619 33.2945 633.619 36.8521 630.809 36.8521 630.809 33.2945" fill="#FFFFFF" transform="matrix(1 0 0 -1.00015 153 834.283)"/><path d="M649.874 21.2121 652.544 21.2121 652.544 25.1925C652.544 28.7515 650.764 30.5771 647.157 30.5771L646.361 30.5771C642.707 30.5771 640.88 28.7515 640.88 25.0991L640.88 10.3488C640.88 6.74307 642.707 4.86938 646.361 4.86938L647.157 4.86938C650.764 4.86938 652.591 6.74307 652.591 10.3488L652.591 15.031 649.921 15.031 649.921 10.2555C649.921 8.33458 648.983 7.44612 647.11 7.44612L646.408 7.44612C644.533 7.44612 643.597 8.33458 643.597 10.2555L643.597 25.1925C643.597 27.1119 644.533 28.049 646.408 28.049L647.063 28.049C648.937 28.049 649.874 27.1119 649.874 25.1925L649.874 21.2121" fill="#FFFFFF" transform="matrix(1 0 0 -1.00015 153 834.283)"/><path d="M662.101 9.83363 659.29 9.83363 659.29 5.15061 662.101 5.15061 662.101 9.83363" fill="#FFFFFF" transform="matrix(1 0 0 -1.00015 153 834.283)"/><path d="M671.516 25.1925C671.516 27.0653 672.453 28.049 674.373 28.049L674.889 28.049C676.763 28.049 677.7 27.0653 677.7 25.1925L677.7 19.2459 671.516 19.2459ZM680.417 16.6705 680.417 25.0991C680.417 28.705 678.542 30.5771 674.936 30.5771L674.28 30.5771C670.626 30.5771 668.799 28.705 668.799 25.0991L668.799 10.3488C668.799 6.74307 670.626 4.86938 674.28 4.86938L674.936 4.86938C678.542 4.86938 680.417 6.74307 680.417 10.3488L680.417 13.1586 677.793 13.1586 677.793 10.2555C677.793 8.38177 676.809 7.44612 674.936 7.44612L674.373 7.44612C672.453 7.44612 671.516 8.38177 671.516 10.2555L671.516 16.6705 680.417 16.6705" fill="#FFFFFF" transform="matrix(1 0 0 -1.00015 153 834.283)"/><path d="M695.97 21.6806 698.594 21.6806 698.594 25.3331C698.594 28.7515 696.907 30.5771 693.347 30.5771L692.691 30.5771C689.084 30.5771 687.351 28.7515 687.351 25.2864L687.351 22.8974C687.351 20.4622 688.194 19.2459 690.162 17.9809L694.425 15.3122C695.548 14.6563 696.017 13.8131 696.017 12.5029L696.017 9.92753C696.017 8.24117 695.174 7.39893 693.394 7.39893L692.597 7.39893C690.817 7.39893 689.927 8.24117 689.927 9.92753L689.927 13.9547 687.304 13.9547 687.304 10.1149C687.304 6.74307 689.037 4.86938 692.597 4.86938L693.347 4.86938C696.907 4.86938 698.688 6.74307 698.688 10.1616L698.688 12.8308C698.688 15.2182 697.844 16.4833 695.83 17.7469L691.567 20.3698C690.443 21.0714 689.975 21.8679 689.975 23.2264L689.975 25.5205C689.975 27.2058 690.864 28.0957 692.644 28.0957L693.3 28.0957C695.127 28.0957 695.97 27.2058 695.97 25.5205L695.97 21.6806" fill="#FFFFFF" transform="matrix(1 0 0 -1.00015 153 834.283)"/><path d="M416.349 7.44612 416.302 7.44612C414.85 7.44612 414.101 8.14725 414.101 9.6463L414.101 13.7207C414.101 15.3589 414.616 16.1086 416.255 16.763L420.097 18.2154 420.097 8.89702C418.598 7.91322 417.52 7.44612 416.349 7.44612ZM411.384 9.13105C411.384 6.36844 412.743 4.86938 415.46 4.86938L415.553 4.86938C417.473 4.86938 418.785 5.75929 420.097 6.83697L420.097 5.15061 422.767 5.15061 422.767 25.2864C422.767 28.7515 420.987 30.5771 417.427 30.5771L417.052 30.5771C413.492 30.5771 411.665 28.7515 411.665 25.2864L411.665 22.1491 414.288 22.1491 414.288 25.3798C414.288 27.1119 415.226 28.049 417.052 28.049L417.38 28.049C419.207 28.049 420.097 27.1119 420.097 25.3798L420.097 20.7435 415.132 18.918C412.415 17.8875 411.384 16.6705 411.384 13.7674L411.384 9.13105" fill="#FFFFFF" transform="matrix(1 0 0 -1.00015 153 834.283)"/><path d="M438.881 21.2121 441.552 21.2121 441.552 25.1925C441.552 28.7515 439.772 30.5771 436.164 30.5771L435.368 30.5771C431.714 30.5771 429.888 28.7515 429.888 25.0991L429.888 10.3488C429.888 6.74307 431.714 4.86938 435.368 4.86938L436.164 4.86938C439.772 4.86938 441.598 6.74307 441.598 10.3488L441.598 15.031 438.928 15.031 438.928 10.2555C438.928 8.33458 437.992 7.44612 436.117 7.44612L435.415 7.44612C433.542 7.44612 432.605 8.33458 432.605 10.2555L432.605 25.1925C432.605 27.1119 433.542 28.049 435.415 28.049L436.071 28.049C437.945 28.049 438.881 27.1119 438.881 25.1925L438.881 21.2121" fill="#FFFFFF" transform="matrix(1 0 0 -1.00015 153 834.283)"/><path d="M460.432 30.2964 457.714 30.2964 457.714 8.99045C456.168 7.91322 455.09 7.44612 453.825 7.44612L453.732 7.44612C452.186 7.44612 451.436 8.14725 451.436 9.69302L451.436 30.2964 448.719 30.2964 448.719 9.17776C448.719 6.41514 450.124 4.86938 452.935 4.86938L453.075 4.86938C455.043 4.86938 456.355 5.75929 457.714 6.88368L457.714 5.15061 460.432 5.15061 460.432 30.2964" fill="#FFFFFF" transform="matrix(1 0 0 -1.00015 153 834.283)"/><path d="M472.424 7.44612 472.377 7.44612C470.923 7.44612 470.174 8.14725 470.174 9.6463L470.174 13.7207C470.174 15.3589 470.689 16.1086 472.329 16.763L476.171 18.2154 476.171 8.89702C474.671 7.91322 473.594 7.44612 472.424 7.44612ZM467.457 9.13105C467.457 6.36844 468.816 4.86938 471.533 4.86938L471.628 4.86938C473.548 4.86938 474.86 5.75929 476.171 6.83697L476.171 5.15061 478.842 5.15061 478.842 25.2864C478.842 28.7515 477.06 30.5771 473.501 30.5771L473.125 30.5771C469.565 30.5771 467.738 28.7515 467.738 25.2864L467.738 22.1491 470.363 22.1491 470.363 25.3798C470.363 27.1119 471.298 28.049 473.125 28.049L473.454 28.049C475.28 28.049 476.171 27.1119 476.171 25.3798L476.171 20.7435 471.204 18.918C468.487 17.8875 467.457 16.6705 467.457 13.7674L467.457 9.13105" fill="#FFFFFF" transform="matrix(1 0 0 -1.00015 153 834.283)"/><path d="M488.865 26.3155C490.225 27.4399 491.349 28.0023 492.661 28.0023L492.753 28.0023C494.393 28.0023 495.284 27.2993 495.284 25.661L495.284 9.78691C495.284 8.14725 494.393 7.44612 492.753 7.44612L492.661 7.44612C491.396 7.44612 490.177 8.05383 488.865 9.17776ZM486.195 5.15061 488.865 5.15061 488.865 6.83697C490.084 5.80647 491.442 4.86938 493.457 4.86938L493.549 4.86938C496.455 4.86938 497.954 6.64965 497.954 9.50569L497.954 25.9422C497.954 28.7982 496.455 30.5771 493.549 30.5771L493.457 30.5771C491.442 30.5771 490.084 29.6414 488.865 28.5643L488.865 38.3978 486.195 38.3978 486.195 5.15061" fill="#FFFFFF" transform="matrix(1 0 0 -1.00015 153 834.283)"/><path d="M505.309 5.15061 508.025 5.15061 508.025 30.2964 505.309 30.2964ZM505.262 33.2945 508.072 33.2945 508.072 36.8521 505.262 36.8521 505.262 33.2945" fill="#FFFFFF" transform="matrix(1 0 0 -1.00015 153 834.283)"/><path d="M521.751 28.049C523.625 28.049 524.562 27.1119 524.562 25.1925L524.562 10.2555C524.562 8.33458 523.625 7.44612 521.751 7.44612L520.862 7.44612C518.987 7.44612 518.051 8.33458 518.051 10.2555L518.051 25.1925C518.051 27.1119 518.987 28.049 520.862 28.049ZM521.798 4.86938C525.405 4.86938 527.232 6.74307 527.232 10.3488L527.232 25.0991C527.232 28.7515 525.405 30.5771 521.798 30.5771L520.815 30.5771C517.161 30.5771 515.334 28.7515 515.334 25.0991L515.334 10.3488C515.334 6.74307 517.161 4.86938 520.815 4.86938L521.798 4.86938" fill="#FFFFFF" transform="matrix(1 0 0 -1.00015 153 834.283)"/><path d="M537.773 27.8145 540.677 27.8145 540.677 30.2964 537.773 30.2964 537.773 34.5109 535.055 34.5109 535.055 30.2964 533.228 30.2964 533.228 27.8145 535.055 27.8145 535.055 5.15061 537.773 5.15061 537.773 27.8145" fill="#FFFFFF" transform="matrix(1 0 0 -1.00015 153 834.283)"/><path d="M548.875 25.1925C548.875 27.0653 549.811 28.049 551.733 28.049L552.249 28.049C554.122 28.049 555.059 27.0653 555.059 25.1925L555.059 19.2459 548.875 19.2459ZM557.776 16.6705 557.776 25.0991C557.776 28.705 555.902 30.5771 552.295 30.5771L551.638 30.5771C547.986 30.5771 546.159 28.705 546.159 25.0991L546.159 10.3488C546.159 6.74307 547.986 4.86938 551.638 4.86938L552.295 4.86938C555.902 4.86938 557.776 6.74307 557.776 10.3488L557.776 13.1586 555.152 13.1586 555.152 10.2555C555.152 8.38177 554.169 7.44612 552.295 7.44612L551.733 7.44612C549.811 7.44612 548.875 8.38177 548.875 10.2555L548.875 16.6705 557.776 16.6705" fill="#FFFFFF" transform="matrix(1 0 0 -1.00015 153 834.283)"/><path d="M573.703 21.2121 576.373 21.2121 576.373 25.1925C576.373 28.7515 574.594 30.5771 570.986 30.5771L570.19 30.5771C566.536 30.5771 564.709 28.7515 564.709 25.0991L564.709 10.3488C564.709 6.74307 566.536 4.86938 570.19 4.86938L570.986 4.86938C574.594 4.86938 576.42 6.74307 576.42 10.3488L576.42 15.031 573.75 15.031 573.75 10.2555C573.75 8.33458 572.813 7.44612 570.939 7.44612L570.237 7.44612C568.363 7.44612 567.426 8.33458 567.426 10.2555L567.426 25.1925C567.426 27.1119 568.363 28.049 570.237 28.049L570.892 28.049C572.766 28.049 573.703 27.1119 573.703 25.1925L573.703 21.2121" fill="#FFFFFF" transform="matrix(1 0 0 -1.00015 153 834.283)"/><path d="M316.166 5.15061 318.836 5.15061 318.836 26.4575C320.382 27.5805 321.506 28.049 322.771 28.049L322.818 28.049C324.364 28.049 325.16 27.2993 325.16 25.755L325.16 5.15061 327.831 5.15061 327.831 26.2702C327.831 29.0329 326.425 30.5771 323.615 30.5771L323.473 30.5771C321.506 30.5771 320.194 29.6872 318.836 28.5643L318.836 38.3978 316.166 38.3978 316.166 5.15061" fill="#FFFFFF" transform="matrix(1 0 0 -1.00015 153 834.283)"/><path d="M338.745 27.8145 341.65 27.8145 341.65 30.2964 338.745 30.2964 338.745 34.5109 336.028 34.5109 336.028 30.2964 334.201 30.2964 334.201 27.8145 336.028 27.8145 336.028 5.15061 338.745 5.15061 338.745 27.8145" fill="#FFFFFF" transform="matrix(1 0 0 -1.00015 153 834.283)"/><path d="M351.066 27.8145 353.971 27.8145 353.971 30.2964 351.066 30.2964 351.066 34.5109 348.349 34.5109 348.349 30.2964 346.523 30.2964 346.523 27.8145 348.349 27.8145 348.349 5.15061 351.066 5.15061 351.066 27.8145" fill="#FFFFFF" transform="matrix(1 0 0 -1.00015 153 834.283)"/><path d="M369.149 25.661 369.149 9.78691C369.149 8.14725 368.258 7.44612 366.619 7.44612L366.525 7.44612C365.26 7.44612 364.089 8.00664 362.73 9.17776L362.73 26.3155C364.089 27.4399 365.213 28.0023 366.525 28.0023L366.619 28.0023C368.258 28.0023 369.149 27.2993 369.149 25.661ZM371.819 9.50569 371.819 25.9422C371.819 28.7982 370.32 30.5771 367.416 30.5771L367.322 30.5771C365.307 30.5771 363.948 29.6414 362.73 28.5643L362.73 30.2964 360.06 30.2964 360.06 0 362.73 0 362.73 6.83697C363.948 5.80647 365.307 4.86938 367.322 4.86938L367.416 4.86938C370.32 4.86938 371.819 6.64965 371.819 9.50569" fill="#FFFFFF" transform="matrix(1 0 0 -1.00015 153 834.283)"/><path d="M381.375 30.2964 378.565 30.2964 378.565 25.6143 381.375 25.6143ZM381.375 9.83363 378.565 9.83363 378.565 5.15061 381.375 5.15061 381.375 9.83363" fill="#FFFFFF" transform="matrix(1 0 0 -1.00015 153 834.283)"/><path d="M395.522 39.4275 393.133 39.4275 387.043 3.65252 389.432 3.65252 395.522 39.4275" fill="#FFFFFF" transform="matrix(1 0 0 -1.00015 153 834.283)"/><path d="M407.562 39.4275 405.173 39.4275 399.083 3.65252 401.473 3.65252 407.562 39.4275" fill="#FFFFFF" transform="matrix(1 0 0 -1.00015 153 834.283)"/><path d="M143.728 76.6749 137.032 81.6132C135.278 82.9779 134.432 84.1481 134.432 86.617L134.432 92.3998C134.432 95.1292 135.797 96.4284 138.657 96.4284L139.633 96.4284C142.493 96.4284 143.859 95.1292 143.859 92.3998L143.859 84.277 147.694 84.277 147.694 92.2703C147.694 97.4035 145.029 100.068 139.762 100.068L138.527 100.068C133.132 100.068 130.532 97.4035 130.532 92.2052L130.532 86.552C130.532 82.9779 131.506 80.7051 134.627 78.4292L141.323 73.4265C143.079 72.0618 143.923 70.9576 143.923 68.4227L143.923 61.4702C143.923 58.7408 142.493 57.4416 139.698 57.4416L138.527 57.4416C135.732 57.4416 134.302 58.7408 134.302 61.4702L134.302 70.9576 130.468 70.9576 130.468 61.5997C130.468 56.4665 133.132 53.8025 138.397 53.8025L139.827 53.8025C145.158 53.8025 147.823 56.4665 147.823 61.6647L147.823 68.5537C147.823 72.3223 146.783 74.4006 143.728 76.6749" fill="#FFFFFF" transform="matrix(1 0 0 -1.00015 153 834.283)"/><path d="M170.51 82.6537 170.51 60.6255C170.51 58.3512 169.274 57.3761 167 57.3761L166.869 57.3761C165.114 57.3761 163.489 58.1567 161.605 59.7813L161.605 83.5626C163.489 85.1232 165.05 85.9018 166.869 85.9018L167 85.9018C169.274 85.9018 170.51 84.9282 170.51 82.6537ZM174.216 60.2359 174.216 83.0434C174.216 87.0065 172.134 89.4758 168.104 89.4758L167.975 89.4758C165.179 89.4758 163.295 88.1767 161.605 86.6824L161.605 89.0863 157.899 89.0863 157.899 47.0445 161.605 47.0445 161.605 56.5319C163.295 55.1017 165.179 53.8025 167.975 53.8025L168.104 53.8025C172.134 53.8025 174.216 56.2714 174.216 60.2359" fill="#FFFFFF" transform="matrix(1 0 0 -1.00015 153 834.283)"/><path d="M190.661 57.3761 190.596 57.3761C188.582 57.3761 187.541 58.3512 187.541 60.431L187.541 66.0843C187.541 68.3577 188.257 69.3978 190.532 70.3065L195.863 72.3223 195.863 59.3904C193.781 58.0272 192.286 57.3761 190.661 57.3761ZM183.77 59.7159C183.77 55.8819 185.657 53.8025 189.426 53.8025L189.557 53.8025C192.221 53.8025 194.042 55.0377 195.863 56.5319L195.863 54.1931 199.567 54.1931 199.567 82.1338C199.567 86.9425 197.098 89.4758 192.157 89.4758L191.637 89.4758C186.695 89.4758 184.162 86.9425 184.162 82.1338L184.162 77.7796 187.801 77.7796 187.801 82.2629C187.801 84.6681 189.101 85.9673 191.637 85.9673L192.091 85.9673C194.627 85.9673 195.863 84.6681 195.863 82.2629L195.863 75.8303 188.971 73.2959C185.201 71.8672 183.77 70.1771 183.77 66.1484L183.77 59.7159" fill="#FFFFFF" transform="matrix(1 0 0 -1.00015 153 834.283)"/><path d="M209.773 54.1931 213.477 54.1931 213.477 83.7584C215.624 85.3177 217.119 85.9673 218.938 85.9673L219.003 85.9673C221.149 85.9673 222.254 84.9282 222.254 82.7833L222.254 54.1931 225.959 54.1931 225.959 83.4984C225.959 87.3321 224.009 89.4758 220.108 89.4758L219.914 89.4758C217.183 89.4758 215.364 88.2417 213.477 86.6824L213.477 89.0863 209.773 89.0863 209.773 54.1931" fill="#FFFFFF" transform="matrix(1 0 0 -1.00015 153 834.283)"/><path d="M236.295 54.1931 240.065 54.1931 240.065 89.0863 236.295 89.0863ZM236.23 93.2445 240.13 93.2445 240.13 98.1827 236.23 98.1827 236.23 93.2445" fill="#FFFFFF" transform="matrix(1 0 0 -1.00015 153 834.283)"/><path d="M262.232 77.13 265.872 77.13 265.872 82.1977C265.872 86.9425 263.532 89.4758 258.591 89.4758L257.682 89.4758C252.676 89.4758 250.272 86.9425 250.272 82.1338L250.272 78.8197C250.272 75.4408 251.441 73.751 254.172 71.9967L260.087 68.2932C261.648 67.3835 262.297 66.2139 262.297 64.3941L262.297 60.8206C262.297 58.4817 261.127 57.3106 258.657 57.3106L257.551 57.3106C255.082 57.3106 253.846 58.4817 253.846 60.8206L253.846 66.4084 250.207 66.4084 250.207 61.0805C250.207 56.4023 252.611 53.8025 257.551 53.8025L258.591 53.8025C263.532 53.8025 266.003 56.4023 266.003 61.1447L266.003 64.8492C266.003 68.1628 264.833 69.9184 262.037 71.6721L256.122 75.3117C254.562 76.2853 253.912 77.39 253.912 79.2747L253.912 82.4579C253.912 84.7977 255.147 86.0328 257.618 86.0328L258.526 86.0328C261.061 86.0328 262.232 84.7977 262.232 82.4579L262.232 77.13" fill="#FFFFFF" transform="matrix(1 0 0 -1.00015 153 834.283)"/><path d="M275.949 54.1931 279.654 54.1931 279.654 83.7584C281.798 85.3177 283.359 85.9673 285.114 85.9673L285.178 85.9673C287.324 85.9673 288.429 84.9282 288.429 82.7833L288.429 54.1931 292.134 54.1931 292.134 83.4984C292.134 87.3321 290.184 89.4758 286.284 89.4758L286.089 89.4758C283.359 89.4758 281.539 88.2417 279.654 86.6824L279.654 100.328 275.949 100.328 275.949 54.1931" fill="#FFFFFF" transform="matrix(1 0 0 -1.00015 153 834.283)"/><path d="M333.738 54.1931 333.738 99.6783 330.033 99.6783 330.033 80.5085 330.097 63.2245 320.217 99.6783 315.277 99.6783 315.277 54.1931 318.981 54.1931 318.981 73.751 318.851 91.6852 329.123 54.1931 333.738 54.1931" fill="#FFFFFF" transform="matrix(1 0 0 -1.00015 153 834.283)"/><path d="M350.64 57.3761 350.575 57.3761C348.56 57.3761 347.52 58.3512 347.52 60.431L347.52 66.0843C347.52 68.3577 348.235 69.3978 350.511 70.3065L355.839 72.3223 355.839 59.3904C353.76 58.0272 352.265 57.3761 350.64 57.3761ZM343.749 59.7159C343.749 55.8819 345.633 53.8025 349.405 53.8025L349.535 53.8025C352.201 53.8025 354.02 55.0377 355.839 56.5319L355.839 54.1931 359.545 54.1931 359.545 82.1338C359.545 86.9425 357.075 89.4758 352.135 89.4758L351.615 89.4758C346.674 89.4758 344.139 86.9425 344.139 82.1338L344.139 77.7796 347.78 77.7796 347.78 82.2629C347.78 84.6681 349.08 85.9673 351.615 85.9673L352.07 85.9673C354.605 85.9673 355.839 84.6681 355.839 82.2629L355.839 75.8303 348.95 73.2959C345.179 71.8672 343.749 70.1771 343.749 66.1484L343.749 59.7159" fill="#FFFFFF" transform="matrix(1 0 0 -1.00015 153 834.283)"/><path d="M374.367 85.6419 378.397 85.6419 378.397 89.0863 374.367 89.0863 374.367 94.9347 370.597 94.9347 370.597 89.0863 368.061 89.0863 368.061 85.6419 370.597 85.6419 370.597 54.1931 374.367 54.1931 374.367 85.6419" fill="#FFFFFF" transform="matrix(1 0 0 -1.00015 153 834.283)"/><path d="M386.978 54.1931 390.747 54.1931 390.747 89.0863 386.978 89.0863ZM386.913 93.2445 390.813 93.2445 390.813 98.1827 386.913 98.1827 386.913 93.2445" fill="#FFFFFF" transform="matrix(1 0 0 -1.00015 153 834.283)"/><path d="M409.795 85.9673C412.395 85.9673 413.696 84.6681 413.696 82.0042L413.696 61.2752C413.696 58.6112 412.395 57.3761 409.795 57.3761L408.56 57.3761C405.96 57.3761 404.659 58.6112 404.659 61.2752L404.659 82.0042C404.659 84.6681 405.96 85.9673 408.56 85.9673ZM409.86 53.8025C414.865 53.8025 417.4 56.4023 417.4 61.4047L417.4 81.8737C417.4 86.9425 414.865 89.4758 409.86 89.4758L408.494 89.4758C403.424 89.4758 400.889 86.9425 400.889 81.8737L400.889 61.4047C400.889 56.4023 403.424 53.8025 408.494 53.8025L409.86 53.8025" fill="#FFFFFF" transform="matrix(1 0 0 -1.00015 153 834.283)"/><path d="M427.411 54.1931 431.115 54.1931 431.115 83.7584C433.261 85.3177 434.755 85.9673 436.577 85.9673L436.642 85.9673C438.786 85.9673 439.891 84.9282 439.891 82.7833L439.891 54.1931 443.597 54.1931 443.597 83.4984C443.597 87.3321 441.646 89.4758 437.747 89.4758L437.551 89.4758C434.822 89.4758 433.001 88.2417 431.115 86.6824L431.115 89.0863 427.411 89.0863 427.411 54.1931" fill="#FFFFFF" transform="matrix(1 0 0 -1.00015 153 834.283)"/><path d="M460.173 57.3761 460.108 57.3761C458.093 57.3761 457.052 58.3512 457.052 60.431L457.052 66.0843C457.052 68.3577 457.768 69.3978 460.043 70.3065L465.373 72.3223 465.373 59.3904C463.294 58.0272 461.799 57.3761 460.173 57.3761ZM453.283 59.7159C453.283 55.8819 455.168 53.8025 458.939 53.8025L459.068 53.8025C461.734 53.8025 463.554 55.0377 465.373 56.5319L465.373 54.1931 469.079 54.1931 469.079 82.1338C469.079 86.9425 466.609 89.4758 461.668 89.4758L461.149 89.4758C456.208 89.4758 453.674 86.9425 453.674 82.1338L453.674 77.7796 457.312 77.7796 457.312 82.2629C457.312 84.6681 458.613 85.9673 461.149 85.9673L461.604 85.9673C464.138 85.9673 465.373 84.6681 465.373 82.2629L465.373 75.8303 458.482 73.2959C454.713 71.8672 453.283 70.1771 453.283 66.1484L453.283 59.7159" fill="#FFFFFF" transform="matrix(1 0 0 -1.00015 153 834.283)"/><path d="M479.415 54.1931 483.185 54.1931 483.185 100.328 479.415 100.328 479.415 54.1931" fill="#FFFFFF" transform="matrix(1 0 0 -1.00015 153 834.283)"/><path d="M519.717 91.9452 519.717 82.3283C519.717 79.1444 518.158 77.6501 514.972 77.6501L510.487 77.6501 510.487 96.0388 515.493 96.0388C518.353 96.0388 519.717 94.7397 519.717 91.9452ZM519.327 75.8958C521.992 76.8709 523.617 78.8197 523.617 83.0434L523.617 91.7503C523.617 97.014 520.953 99.6783 515.623 99.6783L506.585 99.6783 506.585 54.1931 510.487 54.1931 510.487 74.0765 514.907 74.0765C518.222 74.0765 519.783 72.5823 519.783 69.3329L519.783 54.1931 523.683 54.1931 523.683 69.4619C523.683 73.232 522.188 75.1152 519.327 75.8958" fill="#FFFFFF" transform="matrix(1 0 0 -1.00015 153 834.283)"/><path d="M537.658 82.0042C537.658 84.6026 538.959 85.9673 541.624 85.9673L542.34 85.9673C544.94 85.9673 546.24 84.6026 546.24 82.0042L546.24 73.751 537.658 73.751ZM550.009 70.1771 550.009 81.8737C550.009 86.8769 547.409 89.4758 542.405 89.4758L541.494 89.4758C536.424 89.4758 533.889 86.8769 533.889 81.8737L533.889 61.4047C533.889 56.4023 536.424 53.8025 541.494 53.8025L542.405 53.8025C547.409 53.8025 550.009 56.4023 550.009 61.4047L550.009 65.3037 546.37 65.3037 546.37 61.2752C546.37 58.6753 545.005 57.3761 542.405 57.3761L541.624 57.3761C538.959 57.3761 537.658 58.6753 537.658 61.2752L537.658 70.1771 550.009 70.1771" fill="#FFFFFF" transform="matrix(1 0 0 -1.00015 153 834.283)"/><path d="M571.593 77.13 575.233 77.13 575.233 82.1977C575.233 86.9425 572.893 89.4758 567.952 89.4758L567.041 89.4758C562.037 89.4758 559.631 86.9425 559.631 82.1338L559.631 78.8197C559.631 75.4408 560.801 73.751 563.532 71.9967L569.448 68.2932C571.007 67.3835 571.658 66.2139 571.658 64.3941L571.658 60.8206C571.658 58.4817 570.487 57.3106 568.018 57.3106L566.912 57.3106C564.442 57.3106 563.208 58.4817 563.208 60.8206L563.208 66.4084 559.567 66.4084 559.567 61.0805C559.567 56.4023 561.973 53.8025 566.912 53.8025L567.952 53.8025C572.893 53.8025 575.362 56.4023 575.362 61.1447L575.362 64.8492C575.362 68.1628 574.192 69.9184 571.397 71.6721L565.482 75.3117C563.922 76.2853 563.272 77.39 563.272 79.2747L563.272 82.4579C563.272 84.7977 564.507 86.0328 566.977 86.0328L567.887 86.0328C570.423 86.0328 571.593 84.7977 571.593 82.4579L571.593 77.13" fill="#FFFFFF" transform="matrix(1 0 0 -1.00015 153 834.283)"/><path d="M588.754 82.0042C588.754 84.6026 590.055 85.9673 592.72 85.9673L593.435 85.9673C596.035 85.9673 597.335 84.6026 597.335 82.0042L597.335 73.751 588.754 73.751ZM601.104 70.1771 601.104 81.8737C601.104 86.8769 598.505 89.4758 593.499 89.4758L592.589 89.4758C587.519 89.4758 584.984 86.8769 584.984 81.8737L584.984 61.4047C584.984 56.4023 587.519 53.8025 592.589 53.8025L593.499 53.8025C598.505 53.8025 601.104 56.4023 601.104 61.4047L601.104 65.3037 597.465 65.3037 597.465 61.2752C597.465 58.6753 596.1 57.3761 593.499 57.3761L592.72 57.3761C590.055 57.3761 588.754 58.6753 588.754 61.2752L588.754 70.1771 601.104 70.1771" fill="#FFFFFF" transform="matrix(1 0 0 -1.00015 153 834.283)"/><path d="M617.422 57.3761 617.356 57.3761C615.342 57.3761 614.302 58.3512 614.302 60.431L614.302 66.0843C614.302 68.3577 615.016 69.3978 617.292 70.3065L622.623 72.3223 622.623 59.3904C620.541 58.0272 619.047 57.3761 617.422 57.3761ZM610.532 59.7159C610.532 55.8819 612.417 53.8025 616.186 53.8025L616.317 53.8025C618.982 53.8025 620.802 55.0377 622.623 56.5319L622.623 54.1931 626.327 54.1931 626.327 82.1338C626.327 86.9425 623.858 89.4758 618.917 89.4758L618.397 89.4758C613.456 89.4758 610.921 86.9425 610.921 82.1338L610.921 77.7796 614.562 77.7796 614.562 82.2629C614.562 84.6681 615.862 85.9673 618.397 85.9673L618.851 85.9673C621.388 85.9673 622.623 84.6681 622.623 82.2629L622.623 75.8303 615.732 73.2959C611.96 71.8672 610.532 70.1771 610.532 66.1484L610.532 59.7159" fill="#FFFFFF" transform="matrix(1 0 0 -1.00015 153 834.283)"/><path d="M636.533 54.1931 640.237 54.1931 640.237 82.6537C641.863 84.277 643.619 84.9922 646.219 85.1871L646.219 89.4118C643.489 89.3464 641.798 88.1111 640.237 85.5777L640.237 89.0863 636.533 89.0863 636.533 54.1931" fill="#FFFFFF" transform="matrix(1 0 0 -1.00015 153 834.283)"/><path d="M666.436 76.4804 670.14 76.4804 670.14 82.0042C670.14 86.9425 667.67 89.4758 662.665 89.4758L661.56 89.4758C656.49 89.4758 653.954 86.9425 653.954 81.8737L653.954 61.4047C653.954 56.4023 656.49 53.8025 661.56 53.8025L662.665 53.8025C667.67 53.8025 670.206 56.4023 670.206 61.4047L670.206 67.9026 666.5 67.9026 666.5 61.2752C666.5 58.6112 665.201 57.3761 662.601 57.3761L661.625 57.3761C659.025 57.3761 657.726 58.6112 657.726 61.2752L657.726 82.0042C657.726 84.6681 659.025 85.9673 661.625 85.9673L662.535 85.9673C665.135 85.9673 666.436 84.6681 666.436 82.0042L666.436 76.4804" fill="#FFFFFF" transform="matrix(1 0 0 -1.00015 153 834.283)"/><path d="M680.217 54.1931 683.922 54.1931 683.922 83.7584C686.068 85.3177 687.627 85.9673 689.382 85.9673L689.446 85.9673C691.593 85.9673 692.697 84.9282 692.697 82.7833L692.697 54.1931 696.403 54.1931 696.403 83.4984C696.403 87.3321 694.453 89.4758 690.552 89.4758L690.358 89.4758C687.627 89.4758 685.808 88.2417 683.922 86.6824L683.922 100.328 680.217 100.328 680.217 54.1931" fill="#FFFFFF" transform="matrix(1 0 0 -1.00015 153 834.283)"/><path d="M733.196 71.4122 733.196 61.5997C733.196 58.8062 731.831 57.4416 728.97 57.4416L727.41 57.4416C724.55 57.4416 723.185 58.8062 723.185 61.5997L723.185 92.2703C723.185 95.0641 724.55 96.4284 727.41 96.4284L728.84 96.4284C731.7 96.4284 733.066 95.0641 733.066 92.2703L733.066 83.8226 736.902 83.8226 736.902 92.2052C736.902 97.4035 734.3 100.068 729.035 100.068L727.28 100.068C721.949 100.068 719.285 97.3386 719.285 92.1398L719.285 61.7956C719.285 56.5319 721.949 53.8025 727.28 53.8025L729.035 53.8025C734.366 53.8025 737.031 56.5319 737.031 61.7956L737.031 71.4122 733.196 71.4122" fill="#FFFFFF" transform="matrix(1 0 0 -1.00015 153 834.283)"/><path d="M755.622 85.9673C758.222 85.9673 759.523 84.6681 759.523 82.0042L759.523 61.2752C759.523 58.6112 758.222 57.3761 755.622 57.3761L754.387 57.3761C751.787 57.3761 750.487 58.6112 750.487 61.2752L750.487 82.0042C750.487 84.6681 751.787 85.9673 754.387 85.9673ZM755.687 53.8025C760.693 53.8025 763.229 56.4023 763.229 61.4047L763.229 81.8737C763.229 86.9425 760.693 89.4758 755.687 89.4758L754.321 89.4758C749.253 89.4758 746.717 86.9425 746.717 81.8737L746.717 61.4047C746.717 56.4023 749.253 53.8025 754.321 53.8025L755.687 53.8025" fill="#FFFFFF" transform="matrix(1 0 0 -1.00015 153 834.283)"/><path d="M789.36 89.0863 785.589 89.0863 785.589 59.5213C783.444 58.0272 781.95 57.3761 780.195 57.3761L780.063 57.3761C777.919 57.3761 776.878 58.3512 776.878 60.495L776.878 89.0863 773.109 89.0863 773.109 59.7813C773.109 55.9474 775.059 53.8025 778.96 53.8025L779.154 53.8025C781.885 53.8025 783.704 55.0377 785.589 56.5969L785.589 54.1931 789.36 54.1931 789.36 89.0863" fill="#FFFFFF" transform="matrix(1 0 0 -1.00015 153 834.283)"/><path d="M799.63 54.1931 803.336 54.1931 803.336 83.7584C805.48 85.3177 806.977 85.9673 808.796 85.9673L808.861 85.9673C811.006 85.9673 812.112 84.9282 812.112 82.7833L812.112 54.1931 815.818 54.1931 815.818 83.4984C815.818 87.3321 813.867 89.4758 809.967 89.4758L809.771 89.4758C807.042 89.4758 805.22 88.2417 803.336 86.6824L803.336 89.0863 799.63 89.0863 799.63 54.1931" fill="#FFFFFF" transform="matrix(1 0 0 -1.00015 153 834.283)"/><path d="M838.179 76.4804 841.884 76.4804 841.884 82.0042C841.884 86.9425 839.414 89.4758 834.409 89.4758L833.303 89.4758C828.233 89.4758 825.698 86.9425 825.698 81.8737L825.698 61.4047C825.698 56.4023 828.233 53.8025 833.303 53.8025L834.409 53.8025C839.414 53.8025 841.949 56.4023 841.949 61.4047L841.949 67.9026 838.244 67.9026 838.244 61.2752C838.244 58.6112 836.943 57.3761 834.343 57.3761L833.368 57.3761C830.768 57.3761 829.468 58.6112 829.468 61.2752L829.468 82.0042C829.468 84.6681 830.768 85.9673 833.368 85.9673L834.278 85.9673C836.879 85.9673 838.179 84.6681 838.179 82.0042L838.179 76.4804" fill="#FFFFFF" transform="matrix(1 0 0 -1.00015 153 834.283)"/><path d="M852.09 54.1931 855.86 54.1931 855.86 89.0863 852.09 89.0863ZM852.024 93.2445 855.925 93.2445 855.925 98.1827 852.024 98.1827 852.024 93.2445" fill="#FFFFFF" transform="matrix(1 0 0 -1.00015 153 834.283)"/><path d="M866.456 54.1931 870.226 54.1931 870.226 100.328 866.456 100.328 866.456 54.1931" fill="#FFFFFF" transform="matrix(1 0 0 -1.00015 153 834.283)"/><path d="M750.15 213.334 750.15 124.263 775.991 124.263 775.991 131.388 757.787 131.388 757.787 213.334 750.15 213.334" fill="#FFFFFF" transform="matrix(1 0 0 -1.00015 153 834.283)"/><path d="M821.69 130.497 821.563 130.497C817.617 130.497 815.58 132.405 815.58 136.478L815.58 147.549C815.58 152.001 816.981 154.037 821.435 155.819L831.874 159.763 831.874 134.441C827.801 131.769 824.872 130.497 821.69 130.497ZM808.196 135.078C808.196 127.571 811.889 123.499 819.271 123.499L819.525 123.499C824.745 123.499 828.309 125.916 831.874 128.842L831.874 124.263 839.13 124.263 839.13 178.978C839.13 188.394 834.293 193.356 824.618 193.356L823.6 193.356C813.926 193.356 808.961 188.394 808.961 178.978L808.961 170.453 816.089 170.453 816.089 179.233C816.089 183.941 818.636 186.485 823.6 186.485L824.491 186.485C829.456 186.485 831.874 183.941 831.874 179.233L831.874 166.635 818.381 161.672C810.997 158.874 808.196 155.565 808.196 147.676L808.196 135.078" fill="#FFFFFF" transform="matrix(1 0 0 -1.00015 153 834.283)"/><path d="M882.284 181.777C885.975 184.83 889.031 186.358 892.594 186.358L892.849 186.358C897.305 186.358 899.723 184.45 899.723 179.996L899.723 136.859C899.723 132.405 897.305 130.497 892.849 130.497L892.594 130.497C889.158 130.497 885.848 132.152 882.284 135.205ZM875.027 124.263 882.284 124.263 882.284 128.842C885.594 126.044 889.285 123.499 894.758 123.499L895.013 123.499C902.906 123.499 906.979 128.335 906.979 136.097L906.979 180.76C906.979 188.522 902.906 193.356 895.013 193.356L894.758 193.356C889.285 193.356 885.594 190.812 882.284 187.885L882.284 214.606 875.027 214.606 875.027 124.263" fill="#FFFFFF" transform="matrix(1 0 0 -1.00015 153 834.283)"/><path d="M348.783 166.253 357.822 166.253C364.059 166.253 367.369 163.2 367.369 156.964L367.369 139.405C367.369 133.933 364.569 131.261 359.094 131.261L348.783 131.261ZM367.114 198.193 367.114 182.286C367.114 176.178 363.931 173.125 357.567 173.125L348.783 173.125 348.783 206.336 358.841 206.336C364.441 206.336 367.114 203.663 367.114 198.193ZM366.351 169.816C371.57 171.597 374.626 175.67 374.626 183.686L374.626 197.81C374.626 208.118 369.533 213.334 358.967 213.334L341.272 213.334 341.272 124.263 359.221 124.263C369.66 124.263 374.88 129.479 374.88 139.786L374.88 155.692C374.88 163.708 371.698 167.907 366.351 169.816" fill="#FFFFFF" transform="matrix(1 0 0 -1.00015 153 834.283)"/><path d="M411.161 124.263 418.544 124.263 418.544 192.594 411.161 192.594ZM411.033 200.736 418.671 200.736 418.671 210.408 411.033 210.408 411.033 200.736" fill="#FFFFFF" transform="matrix(1 0 0 -1.00015 153 834.283)"/><path d="M471.755 186.485C476.845 186.485 479.391 183.941 479.391 178.724L479.391 138.133C479.391 132.915 476.845 130.497 471.755 130.497L469.336 130.497C464.243 130.497 461.698 132.915 461.698 138.133L461.698 178.724C461.698 183.941 464.243 186.485 469.336 186.485ZM471.882 123.499C481.683 123.499 486.648 128.588 486.648 138.386L486.648 178.47C486.648 188.394 481.683 193.356 471.882 193.356L469.209 193.356C459.279 193.356 454.314 188.394 454.314 178.47L454.314 138.386C454.314 128.588 459.279 123.499 469.209 123.499L471.882 123.499" fill="#FFFFFF" transform="matrix(1 0 0 -1.00015 153 834.283)"/><path d="M539.985 124.263 539.985 206.209 553.988 206.209 553.988 213.334 518.345 213.334 518.345 206.209 532.347 206.209 532.347 124.263 539.985 124.263" fill="#FFFFFF" transform="matrix(1 0 0 -1.00015 153 834.283)"/><path d="M587.976 178.724C587.976 183.813 590.523 186.485 595.743 186.485L597.142 186.485C602.234 186.485 604.78 183.813 604.78 178.724L604.78 162.563 587.976 162.563ZM612.164 155.565 612.164 178.47C612.164 188.267 607.072 193.356 597.27 193.356L595.487 193.356C585.558 193.356 580.593 188.267 580.593 178.47L580.593 138.386C580.593 128.588 585.558 123.499 595.487 123.499L597.27 123.499C607.072 123.499 612.164 128.588 612.164 138.386L612.164 146.021 605.035 146.021 605.035 138.133C605.035 133.042 602.361 130.497 597.27 130.497L595.743 130.497C590.523 130.497 587.976 133.042 587.976 138.133L587.976 155.565 612.164 155.565" fill="#FFFFFF" transform="matrix(1 0 0 -1.00015 153 834.283)"/><path d="M671.358 167.907 678.614 167.907 678.614 178.724C678.614 188.394 673.777 193.356 663.974 193.356L661.81 193.356C651.881 193.356 646.917 188.394 646.917 178.47L646.917 138.386C646.917 128.588 651.881 123.499 661.81 123.499L663.974 123.499C673.777 123.499 678.74 128.588 678.74 138.386L678.74 151.111 671.485 151.111 671.485 138.133C671.485 132.915 668.939 130.497 663.847 130.497L661.938 130.497C656.846 130.497 654.299 132.915 654.299 138.133L654.299 178.724C654.299 183.941 656.846 186.485 661.938 186.485L663.72 186.485C668.812 186.485 671.358 183.941 671.358 178.724L671.358 167.907" fill="#FFFFFF" transform="matrix(1 0 0 -1.00015 153 834.283)"/><path d="M232.718 192.594 225.335 192.594 225.335 134.696C221.134 131.769 218.206 130.497 214.769 130.497L214.514 130.497C210.313 130.497 208.277 132.405 208.277 136.605L208.277 192.594 200.894 192.594 200.894 135.205C200.894 127.699 204.712 123.499 212.351 123.499L212.732 123.499C218.078 123.499 221.643 125.916 225.335 128.971L225.335 124.263 232.718 124.263 232.718 192.594" fill="#FFFFFF" transform="matrix(1 0 0 -1.00015 153 834.283)"/><path d="M281.219 130.497 281.091 130.497C277.146 130.497 275.109 132.405 275.109 136.478L275.109 147.549C275.109 152.001 276.508 154.037 280.964 155.819L291.403 159.763 291.403 134.441C287.329 131.769 284.402 130.497 281.219 130.497ZM267.725 135.078C267.725 127.571 271.417 123.499 278.8 123.499L279.055 123.499C284.275 123.499 287.838 125.916 291.403 128.842L291.403 124.263 298.658 124.263 298.658 178.978C298.658 188.394 293.82 193.356 284.147 193.356L283.128 193.356C273.453 193.356 268.49 188.394 268.49 178.978L268.49 170.453 275.619 170.453 275.619 179.233C275.619 183.941 278.163 186.485 283.128 186.485L284.02 186.485C288.984 186.485 291.403 183.941 291.403 179.233L291.403 166.635 277.908 161.672C270.526 158.874 267.725 155.565 267.725 147.676L267.725 135.078" fill="#FFFFFF" transform="matrix(1 0 0 -1.00015 153 834.283)"/><path d="M167.548 178.724C167.548 183.941 165.002 186.485 159.91 186.485L158.128 186.485C153.036 186.485 150.49 183.941 150.49 178.724L150.49 166.49 143.107 159.109 143.107 178.47C143.107 188.394 148.071 193.356 158 193.356L160.165 193.356C169.966 193.356 174.803 188.394 174.803 178.724L174.803 167.907 167.548 167.907 167.548 178.724" fill="#FFFFFF" fill-rule="evenodd" transform="matrix(1 0 0 -1.00015 153 834.283)"/><path d="M150.595 159.133 150.595 138.133C150.595 132.915 153.142 130.497 158.232 130.497L160.143 130.497C165.235 130.497 167.78 132.915 167.78 138.133L167.78 151.111 175.036 151.111 175.036 138.386C175.036 128.588 170.071 123.499 160.27 123.499L158.106 123.499C148.176 123.499 143.212 128.588 143.212 138.386L143.212 151.752 150.595 159.133" fill="#FFFFFF" fill-rule="evenodd" transform="matrix(1 0 0 -1.00015 153 834.283)"/><path d="M107.159 200.024 115.56 147.218 98.8844 147.218ZM111.868 212.622 102.704 212.622 87.8093 123.295 95.1927 123.295 97.7387 140.091 116.706 140.091 119.38 123.295 126.763 123.295 111.868 212.622" fill="#FFFFFF" transform="matrix(1 0 0 -1.00015 153 834.283)"/><path d="M970.513 416.787C958.695 460.495 866.824 638.433 681.592 642.029 686.492 615.451 691.347 584.277 692.468 559.767 674.9 563 661.74 561.688 647.653 560.413 647.398 595.471 644.149 622.768 640.817 640.059 631.009 638.939 620.971 637.343 610.702 635.228 612.375 616.561 613.052 596.244 612.523 576.3 593.484 573.991 569.932 566.808 557.116 559.767 559.317 585.189 560.171 605.785 560.413 621.25 549.976 617.643 540.046 613.851 530.582 609.89 530.498 565.616 521.942 502.919 519.805 501.71 485.796 491.83 477.487 485.421 469.937 480.333 482.442 527.802 485.24 563.399 484.765 587.593 475.354 582.301 466.486 576.832 458.094 571.22 455.11 551.054 449.705 528.939 439.965 501.417 426.195 494.992 406.051 486.799 395.537 478.556 404.567 503.993 410.539 523.196 414.485 537.567 342.275 473.861 308.317 402.227 229.888 366.201 146.122 327.722 76.9595 377.234 76.9595 377.234 22.2537 427.6 70.8506 485.056 101.594 404.774 119.297 358.548 151.683 356.478 175.973 363.039 176.054 373.329 173.764 404.639 149.852 467.381 149.852 467.381 164.404 470.125 174.261 479.983 174.261 479.983 184.064 462.459 210.043 378.841 217.651 383.108 225.062 388.534 232.369 394.929 206.035 475.343 178.344 525.782 178.344 525.782 193.574 530.42 200.622 538.829 200.622 538.829 217.529 505.877 244.827 442.84 255.348 418.28 337.316 512.111 418.767 705.695 638.225 718.764 793.152 727.99 921.379 608.504 955.496 509.812 963.39 488.59 963.678 462.409 963.678 462.409 963.678 462.409 971.642 431.707 970.513 416.787" fill="#FFFFFF" fill-rule="evenodd" transform="matrix(1 0 0 -1.00015 153 834.283)"/><path d="M969.003 480.161C963.466 502.012 948.926 528.221 938.825 546.995 944.994 537.646 959.594 503.521 952.486 470.093 946.51 441.982 938.166 431.793 934.463 427.888 931.355 424.626 914.787 411.651 890.748 402.975 835.871 383.167 891.435 303.041 948.944 369.036 948.944 369.036 987.431 407.457 969.003 480.161" fill="#FFFFFF" fill-rule="evenodd" transform="matrix(1 0 0 -1.00015 153 834.283)"/><path d="M611.485 689.541C591.098 683.818 579.198 679.477 541.987 661.139 456.918 619.217 393.734 522.978 359.766 481.847 359.645 481.7 359.55 481.556 359.48 481.415 318.939 435.441 285.658 391.819 229.888 366.201 146.122 327.722 76.9595 377.234 76.9595 377.234 22.2537 427.6 70.8506 485.056 101.594 404.774 119.297 358.548 151.683 356.478 175.973 363.039 176.054 373.329 173.764 404.639 149.852 467.381 149.852 467.381 164.404 470.125 174.261 479.983 174.261 479.983 184.064 462.459 210.043 378.841 217.745 383.164 225.135 388.626 232.331 395.043 206.008 475.391 178.344 525.782 178.344 525.782 193.574 530.42 200.622 538.829 200.622 538.829 217.391 506.146 244.38 443.869 255.087 418.891 332.392 511.104 402.081 697.304 633.23 718.743 674.697 722.589 714.858 715.499 751.924 702.533 722.939 706.59 675.404 707.489 611.485 689.541" fill="#FFFFFF" fill-rule="evenodd" transform="matrix(1 0 0 -1.00015 153 834.283)"/><path d="M610.936 555.957C610.932 555.957 610.928 555.956 610.925 555.956 610.927 555.995 610.931 555.997 610.936 555.957ZM721.527 285 727.212 274.604C673.167 243.839 595.242 222.844 483.909 247.576 287.164 291.281 233.008 561.303 153.245 629.285 153.245 629.285 152.394 630.014 150.816 631.102 157.876 620.366 171.544 597.264 192.073 552.815 192.073 552.815 182.688 543.686 170.505 539.857 170.505 539.857 131.055 611.716 111.018 639.576 105.177 638.324 98.9796 635.867 92.5948 631.694 106.66 608.503 144.376 544.977 166.511 495.033 166.511 495.033 157.805 486.829 143.789 481.719 143.789 481.719 112.056 552.317 64.241 601.436 21.3767 542.083-43.5793 638.365 41.8241 676.365 41.8241 676.365 112.004 705.748 177.371 655.488 257.045 594.227 258.969 495.37 361.441 406.285 369.758 419.067 380.485 437.576 389.115 459.264 389.115 459.264 412.706 472.55 434.915 480.299 434.915 480.299 423.362 425.457 398.228 377.932 404.824 373.414 411.745 368.935 419.022 364.505 422.38 362.459 425.74 360.51 429.102 358.647 439.759 379.043 454.091 412.968 463.056 460.379 463.056 460.379 484.069 472.888 514.459 479.236 514.459 479.236 499.423 393.85 476.903 337.965 491.661 333.265 506.322 330.075 520.779 328.157 531.705 366.852 550.812 446.137 555.142 540.07 555.142 540.07 583.107 553.101 610.925 555.956 610.853 554.074 614.947 465.014 590.456 328.04 608.376 330.241 625.612 334.008 641.907 338.782 652.128 406.295 646.711 544.591 646.711 544.591 690.671 547.69 691.911 541.544 692.301 540.846 698.569 498.992 700.506 400.296 701.034 361.755 730.982 376.286 754.486 392.225 768.647 403.346L777.967 418.789C777.967 418.789 763.037 425.654 771.392 432.318 773.73 434.387 776.951 437.068 780.568 439.591 780.889 439.815 781.213 440.037 781.539 440.257 793.295 449.274 807.244 459.305 818.355 465.339 816.037 439.14 801.301 321.648 721.527 285" fill="#FFFFFF" fill-rule="evenodd" transform="matrix(1 0 0 -1.00015 153 834.283)"/><path d="M610.936 557.145C610.932 557.143 610.928 557.143 610.926 557.143 610.927 557.183 610.931 557.184 610.936 557.145ZM744.798 285.646C740.791 283.052 736.601 280.481 732.235 277.958 730.467 277.029 728.67 276.141 726.842 275.301L727.009 275.009C693.715 253.966 666.133 245.183 624.114 239.854 612.335 238.431 601.363 239.426 601.28 239.417 601.28 239.417 439.327 255.108 298.938 476.604 298.08 477.959 298.072 477.945 298.048 477.98 317.852 450.002 329.242 435.466 361.441 407.472 369.758 420.255 380.486 438.763 389.117 460.45 389.117 460.45 412.706 473.738 434.916 481.486 434.916 481.486 423.362 426.644 398.228 379.119 404.824 374.601 411.745 370.123 419.022 365.691 422.383 363.645 425.74 361.692 429.096 359.824 439.754 380.218 454.09 414.147 463.056 461.565 463.056 461.565 484.069 474.074 514.459 480.423 514.459 480.423 499.371 394.738 476.785 338.857 491.586 334.003 506.215 330.676 520.578 328.636 531.471 367.066 550.785 446.747 555.143 541.258 555.143 541.258 583.107 554.288 610.926 557.143 610.853 555.256 614.968 465.729 590.262 328.14 608.317 330.352 625.572 334.227 641.782 339.151 652.173 406.358 646.711 545.779 646.711 545.779 690.671 548.876 691.911 542.731 692.303 542.033 698.551 500.305 700.493 402.071 701.029 363.288 726.391 376.306 746.469 390.194 759.417 400.361L783.115 422.018C783.115 422.018 763.037 426.842 771.392 433.505 773.731 435.574 776.952 438.256 780.568 440.778 780.89 441.002 781.213 441.224 781.541 441.444 797.973 454.049 818.697 468.641 829.956 471.516L830.068 469.327C830.068 469.327 818.634 337.466 744.798 285.646" fill="#FFFFFF" fill-rule="evenodd" transform="matrix(1 0 0 -1.00015 153 834.283)"/><path d="M155.517 645.198C124.578 647.949 110.678 640.415 106.171 637.095 93.7649 632.857 80.0848 622.868 66.587 602.73 23.77 538.853-44.3777 639.116 42.0508 677.573 42.0508 677.573 113.744 708.271 179.04 655.075 197.931 639.685 212.244 622.665 224.961 604.07 217.258 613.409 192.311 641.927 155.517 645.198" fill="#FFFFFF" fill-rule="evenodd" transform="matrix(1 0 0 -1.00015 153 834.283)"/><path d="M772.025 300.783C748.949 281.982 724.526 269.234 698.85 259.328 712.115 265.869 750.827 288.326 767.232 330.368 782.936 370.615 776.62 385.835 775.952 390.814 771.842 413.659 761.845 426.333 741.689 448.034 677.755 516.869 813.4 569.677 834.873 456.114 834.873 456.114 850.12 364.415 772.025 300.783" fill="#FFFFFF" fill-rule="evenodd" transform="matrix(1 0 0 -1.00015 153 834.283)"/><path d="M188.183 366.839C224.441 359.783 256.316 380.268 266.305 387.108 248.933 372.765 230.037 360.46 207.362 351.544 130.626 321.374 71.3389 369.062 71.3389 369.062-1.04447 429.969 91.0755 505.541 114.508 432.297 121.895 409.208 132.503 395.961 141.75 387.258 144.603 384.691 157.697 372.772 188.183 366.839" fill="#FFFFFF" fill-rule="evenodd" transform="matrix(1 0 0 -1.00015 153 834.283)"/><path d="M786.649 492.421C797.241 492.421 805.829 483.834 805.829 473.241 805.829 462.648 797.241 454.06 786.649 454.06 776.057 454.06 767.471 462.648 767.471 473.241 767.471 483.834 776.057 492.421 786.649 492.421" fill="#FFFFFF" fill-rule="evenodd" transform="matrix(1 0 0 -1.00015 153 834.283)"/></g></svg>