<svg width="602" height="301" xmlns="http://www.w3.org/2000/svg" xmlns:xlink="http://www.w3.org/1999/xlink" xml:space="preserve" overflow="hidden"><defs><clipPath id="clip0"><rect x="226" y="117" width="602" height="301"/></clipPath><linearGradient x1="32.2601" y1="330.922" x2="599.912" y2="330.922" gradientUnits="userSpaceOnUse" spreadMethod="pad" id="fill1"><stop offset="0" stop-color="#BA7AB1"/><stop offset="0.0365854" stop-color="#BA7AB1"/><stop offset="0.0674826" stop-color="#BA7AB1"/><stop offset="0.473171" stop-color="#9CD6EF"/><stop offset="0.482791" stop-color="#9CD6EF"/><stop offset="1" stop-color="#2388BF"/></linearGradient><linearGradient x1="536.623" y1="275.174" x2="602" y2="275.174" gradientUnits="userSpaceOnUse" spreadMethod="pad" id="fill2"><stop offset="0" stop-color="#0086AB"/><stop offset="0.195122" stop-color="#0086AB"/><stop offset="0.228623" stop-color="#0086AB"/><stop offset="1" stop-color="#B2DDF0"/></linearGradient><linearGradient x1="46.6105" y1="229.447" x2="448.875" y2="461.695" gradientUnits="userSpaceOnUse" spreadMethod="pad" id="fill3"><stop offset="0" stop-color="#BA8BB1"/><stop offset="0.0365854" stop-color="#BA8BB1"/><stop offset="0.961825" stop-color="#1A7F9C"/><stop offset="1" stop-color="#1A7F9C"/></linearGradient><linearGradient x1="187.897" y1="209.324" x2="302.195" y2="407.293" gradientUnits="userSpaceOnUse" spreadMethod="pad" id="fill4"><stop offset="0" stop-color="#76D2EC"/><stop offset="0.00487805" stop-color="#76D2EC"/><stop offset="0.317073" stop-color="#3E98BF"/><stop offset="0.571015" stop-color="#3E98BF"/><stop offset="1" stop-color="#93D1EB"/></linearGradient><linearGradient x1="294.294" y1="179.34" x2="397.5" y2="358.097" gradientUnits="userSpaceOnUse" spreadMethod="pad" id="fill5"><stop offset="0" stop-color="#10789B"/><stop offset="0.690794" stop-color="#EBC2EA"/><stop offset="1" stop-color="#EBC2EA"/></linearGradient><linearGradient x1="0.243261" y1="391.961" x2="139.042" y2="391.961" gradientUnits="userSpaceOnUse" spreadMethod="pad" id="fill6"><stop offset="0" stop-color="#007ABA"/><stop offset="0.673854" stop-color="#B2DDF0"/><stop offset="1" stop-color="#B2DDF0"/></linearGradient><linearGradient x1="401.735" y1="212.596" x2="520.925" y2="281.41" gradientUnits="userSpaceOnUse" spreadMethod="pad" id="fill7"><stop offset="0" stop-color="#0588AD"/><stop offset="0.170732" stop-color="#0588AD"/><stop offset="0.549805" stop-color="#0588AD"/><stop offset="1" stop-color="#B2DDF0"/></linearGradient><linearGradient x1="27.2527" y1="248.465" x2="164.596" y2="248.465" gradientUnits="userSpaceOnUse" spreadMethod="pad" id="fill8"><stop offset="0" stop-color="#A06695"/><stop offset="0.865696" stop-color="#96D4EF"/><stop offset="1" stop-color="#96D4EF"/></linearGradient></defs><g clip-path="url(#clip0)" transform="translate(-226 -117)"><path d="M362.725 6.07787 360.987 6.07787 360.987 3.18344 362.725 3.18344 362.725 6.07787" fill="#0D526E" transform="matrix(1 0 0 -1.00165 226 562.855)"/><path d="M372.424 13.1105 374.074 13.1105 374.074 15.5707C374.074 17.7705 372.974 18.8988 370.745 18.8988L370.252 18.8988C367.994 18.8988 366.865 17.7705 366.865 15.513L366.865 6.39633C366.865 4.16769 367.994 3.00962 370.252 3.00962L370.745 3.00962C372.974 3.00962 374.103 4.16769 374.103 6.39633L374.103 9.2902 372.453 9.2902 372.453 6.33859C372.453 5.15136 371.874 4.60223 370.716 4.60223L370.281 4.60223C369.123 4.60223 368.544 5.15136 368.544 6.33859L368.544 15.5707C368.544 16.7571 369.123 17.3362 370.281 17.3362L370.687 17.3362C371.845 17.3362 372.424 16.7571 372.424 15.5707L372.424 13.1105" fill="#0D526E" transform="matrix(1 0 0 -1.00165 226 562.855)"/><path d="M383.745 13.4001 385.367 13.4001 385.367 15.6576C385.367 17.7705 384.325 18.8988 382.123 18.8988L381.719 18.8988C379.489 18.8988 378.418 17.7705 378.418 15.6288L378.418 14.1522C378.418 12.6471 378.938 11.8953 380.155 11.1134L382.79 9.46399C383.485 9.05865 383.774 8.53749 383.774 7.72763L383.774 6.13591C383.774 5.09362 383.252 4.57306 382.153 4.57306L381.661 4.57306C380.561 4.57306 380.01 5.09362 380.01 6.13591L380.01 8.62496 378.389 8.62496 378.389 6.25169C378.389 4.16769 379.46 3.00962 381.661 3.00962L382.123 3.00962C384.325 3.00962 385.425 4.16769 385.425 6.28056L385.425 7.93031C385.425 9.40594 384.903 10.1878 383.659 10.9688L381.024 12.59C380.329 13.0236 380.039 13.5159 380.039 14.3555L380.039 15.7735C380.039 16.8151 380.589 17.3651 381.69 17.3651L382.094 17.3651C383.224 17.3651 383.745 16.8151 383.745 15.7735L383.745 13.4001" fill="#0D526E" transform="matrix(1 0 0 -1.00165 226 562.855)"/><path d="M389.913 3.18344 391.592 3.18344 391.592 18.7253 389.913 18.7253ZM389.884 20.5783 391.621 20.5783 391.621 22.7772 389.884 22.7772 389.884 20.5783" fill="#0D526E" transform="matrix(1 0 0 -1.00165 226 562.855)"/><path d="M401.668 13.1105 403.318 13.1105 403.318 15.5707C403.318 17.7705 402.218 18.8988 399.988 18.8988L399.496 18.8988C397.238 18.8988 396.109 17.7705 396.109 15.513L396.109 6.39633C396.109 4.16769 397.238 3.00962 399.496 3.00962L399.988 3.00962C402.218 3.00962 403.347 4.16769 403.347 6.39633L403.347 9.2902 401.697 9.2902 401.697 6.33859C401.697 5.15136 401.117 4.60223 399.959 4.60223L399.525 4.60223C398.367 4.60223 397.788 5.15136 397.788 6.33859L397.788 15.5707C397.788 16.7571 398.367 17.3362 399.525 17.3362L399.93 17.3362C401.089 17.3362 401.668 16.7571 401.668 15.5707L401.668 13.1105" fill="#0D526E" transform="matrix(1 0 0 -1.00165 226 562.855)"/><path d="M409.224 6.07787 407.487 6.07787 407.487 3.18344 409.224 3.18344 409.224 6.07787" fill="#0D526E" transform="matrix(1 0 0 -1.00165 226 562.855)"/><path d="M415.044 15.5707C415.044 16.7282 415.623 17.3362 416.81 17.3362L417.129 17.3362C418.287 17.3362 418.866 16.7282 418.866 15.5707L418.866 11.8953 415.044 11.8953ZM420.545 10.3036 420.545 15.513C420.545 17.7417 419.387 18.8988 417.158 18.8988L416.752 18.8988C414.494 18.8988 413.365 17.7417 413.365 15.513L413.365 6.39633C413.365 4.16769 414.494 3.00962 416.752 3.00962L417.158 3.00962C419.387 3.00962 420.545 4.16769 420.545 6.39633L420.545 8.13298 418.924 8.13298 418.924 6.33859C418.924 5.18052 418.316 4.60223 417.158 4.60223L416.81 4.60223C415.623 4.60223 415.044 5.18052 415.044 6.33859L415.044 10.3036 420.545 10.3036" fill="#0D526E" transform="matrix(1 0 0 -1.00165 226 562.855)"/><path d="M430.158 13.4001 431.78 13.4001 431.78 15.6576C431.78 17.7705 430.737 18.8988 428.537 18.8988L428.132 18.8988C425.902 18.8988 424.831 17.7705 424.831 15.6288L424.831 14.1522C424.831 12.6471 425.352 11.8953 426.568 11.1134L429.203 9.46399C429.898 9.05865 430.187 8.53749 430.187 7.72763L430.187 6.13591C430.187 5.09362 429.666 4.57306 428.566 4.57306L428.074 4.57306C426.974 4.57306 426.423 5.09362 426.423 6.13591L426.423 8.62496 424.802 8.62496 424.802 6.25169C424.802 4.16769 425.873 3.00962 428.074 3.00962L428.537 3.00962C430.737 3.00962 431.838 4.16769 431.838 6.28056L431.838 7.93031C431.838 9.40594 431.316 10.1878 430.071 10.9688L427.437 12.59C426.742 13.0236 426.452 13.5159 426.452 14.3555L426.452 15.7735C426.452 16.8151 427.002 17.3651 428.103 17.3651L428.508 17.3651C429.637 17.3651 430.158 16.8151 430.158 15.7735L430.158 13.4001" fill="#0D526E" transform="matrix(1 0 0 -1.00165 226 562.855)"/><path d="M257.333 4.60223 257.304 4.60223C256.407 4.60223 255.943 5.03557 255.943 5.96209L255.943 8.48034C255.943 9.49287 256.262 9.95628 257.275 10.3607L259.649 11.2584 259.649 5.49899C258.723 4.89093 258.057 4.60223 257.333 4.60223ZM254.264 5.64363C254.264 3.93614 255.104 3.00962 256.783 3.00962L256.841 3.00962C258.028 3.00962 258.839 3.55964 259.649 4.22573L259.649 3.18344 261.3 3.18344 261.3 15.6288C261.3 17.7705 260.199 18.8988 257.999 18.8988L257.767 18.8988C255.567 18.8988 254.438 17.7705 254.438 15.6288L254.438 13.6897 256.059 13.6897 256.059 15.6865C256.059 16.7571 256.638 17.3362 257.767 17.3362L257.97 17.3362C259.099 17.3362 259.649 16.7571 259.649 15.6865L259.649 12.821 256.58 11.6926C254.901 11.0557 254.264 10.3036 254.264 8.50922L254.264 5.64363" fill="#23A3CA" transform="matrix(1 0 0 -1.00165 226 562.855)"/><path d="M271.26 13.1105 272.91 13.1105 272.91 15.5707C272.91 17.7705 271.81 18.8988 269.58 18.8988L269.088 18.8988C266.83 18.8988 265.701 17.7705 265.701 15.513L265.701 6.39633C265.701 4.16769 266.83 3.00962 269.088 3.00962L269.58 3.00962C271.81 3.00962 272.939 4.16769 272.939 6.39633L272.939 9.2902 271.289 9.2902 271.289 6.33859C271.289 5.15136 270.71 4.60223 269.551 4.60223L269.117 4.60223C267.959 4.60223 267.38 5.15136 267.38 6.33859L267.38 15.5707C267.38 16.7571 267.959 17.3362 269.117 17.3362L269.522 17.3362C270.681 17.3362 271.26 16.7571 271.26 15.5707L271.26 13.1105" fill="#23A3CA" transform="matrix(1 0 0 -1.00165 226 562.855)"/><path d="M284.579 18.7253 282.899 18.7253 282.899 5.55672C281.943 4.89093 281.277 4.60223 280.496 4.60223L280.438 4.60223C279.482 4.60223 279.019 5.03557 279.019 5.99096L279.019 18.7253 277.34 18.7253 277.34 5.6725C277.34 3.96501 278.208 3.00962 279.946 3.00962L280.032 3.00962C281.249 3.00962 282.059 3.55964 282.899 4.2546L282.899 3.18344 284.579 3.18344 284.579 18.7253" fill="#23A3CA" transform="matrix(1 0 0 -1.00165 226 562.855)"/><path d="M291.991 4.60223 291.962 4.60223C291.064 4.60223 290.6 5.03557 290.6 5.96209L290.6 8.48034C290.6 9.49287 290.919 9.95628 291.932 10.3607L294.307 11.2584 294.307 5.49899C293.38 4.89093 292.714 4.60223 291.991 4.60223ZM288.921 5.64363C288.921 3.93614 289.761 3.00962 291.44 3.00962L291.499 3.00962C292.686 3.00962 293.497 3.55964 294.307 4.22573L294.307 3.18344 295.958 3.18344 295.958 15.6288C295.958 17.7705 294.857 18.8988 292.657 18.8988L292.424 18.8988C290.224 18.8988 289.095 17.7705 289.095 15.6288L289.095 13.6897 290.717 13.6897 290.717 15.6865C290.717 16.7571 291.295 17.3362 292.424 17.3362L292.628 17.3362C293.756 17.3362 294.307 16.7571 294.307 15.6865L294.307 12.821 291.237 11.6926C289.558 11.0557 288.921 10.3036 288.921 8.50922L288.921 5.64363" fill="#23A3CA" transform="matrix(1 0 0 -1.00165 226 562.855)"/><path d="M302.153 16.2648C302.993 16.9598 303.688 17.3074 304.499 17.3074L304.556 17.3074C305.569 17.3074 306.12 16.8728 306.12 15.8603L306.12 6.049C306.12 5.03557 305.569 4.60223 304.556 4.60223L304.499 4.60223C303.717 4.60223 302.964 4.97783 302.153 5.6725ZM300.502 3.18344 302.153 3.18344 302.153 4.22573C302.906 3.58881 303.745 3.00962 304.991 3.00962L305.048 3.00962C306.844 3.00962 307.771 4.10995 307.771 5.87519L307.771 16.0341C307.771 17.7993 306.844 18.8988 305.048 18.8988L304.991 18.8988C303.745 18.8988 302.906 18.3205 302.153 17.6547L302.153 23.7326 300.502 23.7326 300.502 3.18344" fill="#23A3CA" transform="matrix(1 0 0 -1.00165 226 562.855)"/><path d="M312.316 3.18344 313.995 3.18344 313.995 18.7253 312.316 18.7253ZM312.287 20.5783 314.024 20.5783 314.024 22.7772 312.287 22.7772 312.287 20.5783" fill="#23A3CA" transform="matrix(1 0 0 -1.00165 226 562.855)"/><path d="M322.479 17.3362C323.637 17.3362 324.216 16.7571 324.216 15.5707L324.216 6.33859C324.216 5.15136 323.637 4.60223 322.479 4.60223L321.929 4.60223C320.771 4.60223 320.191 5.15136 320.191 6.33859L320.191 15.5707C320.191 16.7571 320.771 17.3362 321.929 17.3362ZM322.508 3.00962C324.737 3.00962 325.866 4.16769 325.866 6.39633L325.866 15.513C325.866 17.7705 324.737 18.8988 322.508 18.8988L321.9 18.8988C319.641 18.8988 318.512 17.7705 318.512 15.513L318.512 6.39633C318.512 4.16769 319.641 3.00962 321.9 3.00962L322.508 3.00962" fill="#23A3CA" transform="matrix(1 0 0 -1.00165 226 562.855)"/><path d="M332.381 17.1913 334.176 17.1913 334.176 18.7253 332.381 18.7253 332.381 21.3301 330.701 21.3301 330.701 18.7253 329.572 18.7253 329.572 17.1913 330.701 17.1913 330.701 3.18344 332.381 3.18344 332.381 17.1913" fill="#23A3CA" transform="matrix(1 0 0 -1.00165 226 562.855)"/><path d="M339.243 15.5707C339.243 16.7282 339.822 17.3362 341.01 17.3362L341.328 17.3362C342.486 17.3362 343.065 16.7282 343.065 15.5707L343.065 11.8953 339.243 11.8953ZM344.745 10.3036 344.745 15.513C344.745 17.7417 343.586 18.8988 341.357 18.8988L340.951 18.8988C338.693 18.8988 337.564 17.7417 337.564 15.513L337.564 6.39633C337.564 4.16769 338.693 3.00962 340.951 3.00962L341.357 3.00962C343.586 3.00962 344.745 4.16769 344.745 6.39633L344.745 8.13298 343.122 8.13298 343.122 6.33859C343.122 5.18052 342.515 4.60223 341.357 4.60223L341.01 4.60223C339.822 4.60223 339.243 5.18052 339.243 6.33859L339.243 10.3036 344.745 10.3036" fill="#23A3CA" transform="matrix(1 0 0 -1.00165 226 562.855)"/><path d="M354.589 13.1105 356.239 13.1105 356.239 15.5707C356.239 17.7705 355.139 18.8988 352.909 18.8988L352.417 18.8988C350.159 18.8988 349.03 17.7705 349.03 15.513L349.03 6.39633C349.03 4.16769 350.159 3.00962 352.417 3.00962L352.909 3.00962C355.139 3.00962 356.268 4.16769 356.268 6.39633L356.268 9.2902 354.618 9.2902 354.618 6.33859C354.618 5.15136 354.039 4.60223 352.88 4.60223L352.446 4.60223C351.288 4.60223 350.709 5.15136 350.709 6.33859L350.709 15.5707C350.709 16.7571 351.288 17.3362 352.446 17.3362L352.852 17.3362C354.01 17.3362 354.589 16.7571 354.589 15.5707L354.589 13.1105" fill="#23A3CA" transform="matrix(1 0 0 -1.00165 226 562.855)"/><path d="M195.413 3.18344 197.063 3.18344 197.063 16.3526C198.018 17.0466 198.713 17.3362 199.495 17.3362L199.524 17.3362C200.479 17.3362 200.972 16.8728 200.972 15.9184L200.972 3.18344 202.622 3.18344 202.622 16.2369C202.622 17.9443 201.753 18.8988 200.016 18.8988L199.929 18.8988C198.713 18.8988 197.903 18.3488 197.063 17.6547L197.063 23.7326 195.413 23.7326 195.413 3.18344" fill="#0D526E" transform="matrix(1 0 0 -1.00165 226 562.855)"/><path d="M209.368 17.1913 211.164 17.1913 211.164 18.7253 209.368 18.7253 209.368 21.3301 207.689 21.3301 207.689 18.7253 206.56 18.7253 206.56 17.1913 207.689 17.1913 207.689 3.18344 209.368 3.18344 209.368 17.1913" fill="#0D526E" transform="matrix(1 0 0 -1.00165 226 562.855)"/><path d="M216.984 17.1913 218.779 17.1913 218.779 18.7253 216.984 18.7253 216.984 21.3301 215.304 21.3301 215.304 18.7253 214.175 18.7253 214.175 17.1913 215.304 17.1913 215.304 3.18344 216.984 3.18344 216.984 17.1913" fill="#0D526E" transform="matrix(1 0 0 -1.00165 226 562.855)"/><path d="M228.16 15.8603 228.16 6.049C228.16 5.03557 227.609 4.60223 226.596 4.60223L226.538 4.60223C225.756 4.60223 225.033 4.94867 224.193 5.6725L224.193 16.2648C225.033 16.9598 225.728 17.3074 226.538 17.3074L226.596 17.3074C227.609 17.3074 228.16 16.8728 228.16 15.8603ZM229.81 5.87519 229.81 16.0341C229.81 17.7993 228.883 18.8988 227.088 18.8988L227.03 18.8988C225.785 18.8988 224.946 18.3205 224.193 17.6547L224.193 18.7253 222.543 18.7253 222.543 0 224.193 0 224.193 4.22573C224.946 3.58881 225.785 3.00962 227.03 3.00962L227.088 3.00962C228.883 3.00962 229.81 4.10995 229.81 5.87519" fill="#0D526E" transform="matrix(1 0 0 -1.00165 226 562.855)"/><path d="M235.716 18.7253 233.979 18.7253 233.979 15.8314 235.716 15.8314ZM235.716 6.07787 233.979 6.07787 233.979 3.18344 235.716 3.18344 235.716 6.07787" fill="#0D526E" transform="matrix(1 0 0 -1.00165 226 562.855)"/><path d="M244.46 24.3689 242.984 24.3689 239.22 2.25751 240.696 2.25751 244.46 24.3689" fill="#0D526E" transform="matrix(1 0 0 -1.00165 226 562.855)"/><path d="M251.902 24.3689 250.425 24.3689 246.662 2.25751 248.138 2.25751 251.902 24.3689" fill="#0D526E" transform="matrix(1 0 0 -1.00165 226 562.855)"/><path d="M88.8341 47.3904 84.6952 50.4427C83.611 51.2861 83.0883 52.0094 83.0883 53.5353L83.0883 57.1095C83.0883 58.7965 83.9326 59.5995 85.7002 59.5995L86.3029 59.5995C88.0706 59.5995 88.9148 58.7965 88.9148 57.1095L88.9148 52.0891 91.2852 52.0891 91.2852 57.0295C91.2852 60.2022 89.6379 61.849 86.3829 61.849L85.6195 61.849C82.2853 61.849 80.6776 60.2022 80.6776 56.9893L80.6776 53.4952C80.6776 51.2861 81.2803 49.8813 83.2087 48.4748L87.3475 45.3827C88.4325 44.5392 88.9544 43.8568 88.9544 42.29L88.9544 37.9929C88.9544 36.3059 88.0706 35.5029 86.3433 35.5029L85.6195 35.5029C83.8922 35.5029 83.0083 36.3059 83.0083 37.9929L83.0083 43.8568 80.638 43.8568 80.638 38.0729C80.638 34.9002 82.2853 33.2537 85.5395 33.2537L86.4233 33.2537C89.7179 33.2537 91.3652 34.9002 91.3652 38.1131L91.3652 42.371C91.3652 44.7002 90.7221 45.9848 88.8341 47.3904" fill="#0D526E" transform="matrix(1 0 0 -1.00165 226 562.855)"/><path d="M105.387 51.0858 105.387 37.4708C105.387 36.0651 104.623 35.4625 103.218 35.4625L103.137 35.4625C102.052 35.4625 101.048 35.9449 99.8828 36.9491L99.8828 51.6475C101.048 52.6121 102.012 53.0933 103.137 53.0933L103.218 53.0933C104.623 53.0933 105.387 52.4916 105.387 51.0858ZM107.677 37.2301 107.677 51.3267C107.677 53.7761 106.391 55.3023 103.9 55.3023L103.82 55.3023C102.092 55.3023 100.927 54.4993 99.8828 53.5758L99.8828 55.0616 97.5924 55.0616 97.5924 29.0768 99.8828 29.0768 99.8828 34.9407C100.927 34.0567 102.092 33.2537 103.82 33.2537L103.9 33.2537C106.391 33.2537 107.677 34.7797 107.677 37.2301" fill="#0D526E" transform="matrix(1 0 0 -1.00165 226 562.855)"/><path d="M117.842 35.4625 117.802 35.4625C116.557 35.4625 115.914 36.0651 115.914 37.3506L115.914 40.8447C115.914 42.2499 116.356 42.8927 117.762 43.4543L121.057 44.7002 121.057 36.7074C119.771 35.8648 118.846 35.4625 117.842 35.4625ZM113.583 36.9086C113.583 34.5389 114.749 33.2537 117.079 33.2537L117.16 33.2537C118.806 33.2537 119.931 34.0172 121.057 34.9407L121.057 33.4951 123.346 33.4951 123.346 50.7644C123.346 53.7366 121.82 55.3023 118.766 55.3023L118.445 55.3023C115.391 55.3023 113.825 53.7366 113.825 50.7644L113.825 48.0732 116.075 48.0732 116.075 50.8442C116.075 52.3308 116.878 53.1338 118.445 53.1338L118.726 53.1338C120.293 53.1338 121.057 52.3308 121.057 50.8442L121.057 46.8685 116.798 45.302C114.468 44.4189 113.583 43.3743 113.583 40.8843L113.583 36.9086" fill="#0D526E" transform="matrix(1 0 0 -1.00165 226 562.855)"/><path d="M129.654 33.4951 131.944 33.4951 131.944 51.7686C133.27 52.7323 134.195 53.1338 135.319 53.1338L135.36 53.1338C136.685 53.1338 137.368 52.4916 137.368 51.1659L137.368 33.4951 139.659 33.4951 139.659 51.6079C139.659 53.9773 138.453 55.3023 136.042 55.3023L135.922 55.3023C134.234 55.3023 133.11 54.5396 131.944 53.5758L131.944 55.0616 129.654 55.0616 129.654 33.4951" fill="#0D526E" transform="matrix(1 0 0 -1.00165 226 562.855)"/><path d="M146.047 33.4951 148.377 33.4951 148.377 55.0616 146.047 55.0616ZM146.006 57.6316 148.418 57.6316 148.418 60.6837 146.006 60.6837 146.006 57.6316" fill="#0D526E" transform="matrix(1 0 0 -1.00165 226 562.855)"/><path d="M162.077 47.6718 164.327 47.6718 164.327 50.804C164.327 53.7366 162.881 55.3023 159.828 55.3023L159.265 55.3023C156.172 55.3023 154.685 53.7366 154.685 50.7644L154.685 48.7161C154.685 46.6277 155.408 45.5833 157.096 44.499L160.752 42.2099C161.716 41.6477 162.118 40.9248 162.118 39.8L162.118 37.5914C162.118 36.1458 161.395 35.4219 159.868 35.4219L159.184 35.4219C157.658 35.4219 156.895 36.1458 156.895 37.5914L156.895 41.045 154.645 41.045 154.645 37.7521C154.645 34.8606 156.131 33.2537 159.184 33.2537L159.828 33.2537C162.881 33.2537 164.408 34.8606 164.408 37.7917L164.408 40.0813C164.408 42.1293 163.685 43.2145 161.957 44.2984L158.301 46.5479C157.337 47.1497 156.935 47.8324 156.935 48.9974L156.935 50.9647C156.935 52.4109 157.699 53.1743 159.226 53.1743L159.787 53.1743C161.354 53.1743 162.077 52.4109 162.077 50.9647L162.077 47.6718" fill="#0D526E" transform="matrix(1 0 0 -1.00165 226 562.855)"/><path d="M170.555 33.4951 172.846 33.4951 172.846 51.7686C174.171 52.7323 175.135 53.1338 176.22 53.1338L176.26 53.1338C177.587 53.1338 178.269 52.4916 178.269 51.1659L178.269 33.4951 180.56 33.4951 180.56 51.6079C180.56 53.9773 179.354 55.3023 176.944 55.3023L176.823 55.3023C175.135 55.3023 174.011 54.5396 172.846 53.5758L172.846 62.0097 170.555 62.0097 170.555 33.4951" fill="#0D526E" transform="matrix(1 0 0 -1.00165 226 562.855)"/><path d="M206.273 33.4951 206.273 61.6082 203.984 61.6082 203.984 49.7599 204.023 39.0771 197.916 61.6082 194.863 61.6082 194.863 33.4951 197.153 33.4951 197.153 45.5833 197.072 56.6679 203.421 33.4951 206.273 33.4951" fill="#0D526E" transform="matrix(1 0 0 -1.00165 226 562.855)"/><path d="M216.72 35.4625 216.68 35.4625C215.435 35.4625 214.792 36.0651 214.792 37.3506L214.792 40.8447C214.792 42.2499 215.233 42.8927 216.64 43.4543L219.934 44.7002 219.934 36.7074C218.648 35.8648 217.724 35.4625 216.72 35.4625ZM212.461 36.9086C212.461 34.5389 213.626 33.2537 215.957 33.2537L216.037 33.2537C217.685 33.2537 218.809 34.0172 219.934 34.9407L219.934 33.4951 222.224 33.4951 222.224 50.7644C222.224 53.7366 220.697 55.3023 217.644 55.3023L217.323 55.3023C214.269 55.3023 212.702 53.7366 212.702 50.7644L212.702 48.0732 214.952 48.0732 214.952 50.8442C214.952 52.3308 215.755 53.1338 217.323 53.1338L217.604 53.1338C219.17 53.1338 219.934 52.3308 219.934 50.8442L219.934 46.8685 215.675 45.302C213.345 44.4189 212.461 43.3743 212.461 40.8843L212.461 36.9086" fill="#0D526E" transform="matrix(1 0 0 -1.00165 226 562.855)"/><path d="M231.385 52.9326 233.876 52.9326 233.876 55.0616 231.385 55.0616 231.385 58.6763 229.055 58.6763 229.055 55.0616 227.488 55.0616 227.488 52.9326 229.055 52.9326 229.055 33.4951 231.385 33.4951 231.385 52.9326" fill="#0D526E" transform="matrix(1 0 0 -1.00165 226 562.855)"/><path d="M239.179 33.4951 241.509 33.4951 241.509 55.0616 239.179 55.0616ZM239.139 57.6316 241.55 57.6316 241.55 60.6837 239.139 60.6837 239.139 57.6316" fill="#0D526E" transform="matrix(1 0 0 -1.00165 226 562.855)"/><path d="M253.282 53.1338C254.889 53.1338 255.693 52.3308 255.693 50.6843L255.693 37.8724C255.693 36.2258 254.889 35.4625 253.282 35.4625L252.518 35.4625C250.912 35.4625 250.108 36.2258 250.108 37.8724L250.108 50.6843C250.108 52.3308 250.912 53.1338 252.518 53.1338ZM253.322 33.2537C256.416 33.2537 257.982 34.8606 257.982 37.9524L257.982 50.6037C257.982 53.7366 256.416 55.3023 253.322 55.3023L252.478 55.3023C249.344 55.3023 247.778 53.7366 247.778 50.6037L247.778 37.9524C247.778 34.8606 249.344 33.2537 252.478 33.2537L253.322 33.2537" fill="#0D526E" transform="matrix(1 0 0 -1.00165 226 562.855)"/><path d="M264.17 33.4951 266.459 33.4951 266.459 51.7686C267.786 52.7323 268.709 53.1338 269.835 53.1338L269.875 53.1338C271.201 53.1338 271.884 52.4916 271.884 51.1659L271.884 33.4951 274.174 33.4951 274.174 51.6079C274.174 53.9773 272.969 55.3023 270.558 55.3023L270.438 55.3023C268.75 55.3023 267.625 54.5396 266.459 53.5758L266.459 55.0616 264.17 55.0616 264.17 33.4951" fill="#0D526E" transform="matrix(1 0 0 -1.00165 226 562.855)"/><path d="M284.42 35.4625 284.379 35.4625C283.134 35.4625 282.49 36.0651 282.49 37.3506L282.49 40.8447C282.49 42.2499 282.932 42.8927 284.339 43.4543L287.633 44.7002 287.633 36.7074C286.348 35.8648 285.424 35.4625 284.42 35.4625ZM280.16 36.9086C280.16 34.5389 281.325 33.2537 283.656 33.2537L283.736 33.2537C285.384 33.2537 286.509 34.0172 287.633 34.9407L287.633 33.4951 289.924 33.4951 289.924 50.7644C289.924 53.7366 288.397 55.3023 285.343 55.3023L285.022 55.3023C281.969 55.3023 280.402 53.7366 280.402 50.7644L280.402 48.0732 282.651 48.0732 282.651 50.8442C282.651 52.3308 283.455 53.1338 285.022 53.1338L285.303 53.1338C286.87 53.1338 287.633 52.3308 287.633 50.8442L287.633 46.8685 283.374 45.302C281.044 44.4189 280.16 43.3743 280.16 40.8843L280.16 36.9086" fill="#0D526E" transform="matrix(1 0 0 -1.00165 226 562.855)"/><path d="M296.312 33.4951 298.642 33.4951 298.642 62.0097 296.312 62.0097 296.312 33.4951" fill="#0D526E" transform="matrix(1 0 0 -1.00165 226 562.855)"/><path d="M321.222 56.8286 321.222 50.8847C321.222 48.9167 320.258 47.9932 318.289 47.9932L315.517 47.9932 315.517 59.3588 318.61 59.3588C320.378 59.3588 321.222 58.5558 321.222 56.8286ZM320.981 46.9089C322.628 47.5116 323.632 48.7161 323.632 51.3267L323.632 56.7081C323.632 59.9614 321.985 61.6082 318.691 61.6082L313.105 61.6082 313.105 33.4951 315.517 33.4951 315.517 45.7845 318.249 45.7845C320.297 45.7845 321.262 44.8609 321.262 42.8526L321.262 33.4951 323.673 33.4951 323.673 42.9323C323.673 45.2625 322.748 46.4265 320.981 46.9089" fill="#0D526E" transform="matrix(1 0 0 -1.00165 226 562.855)"/><path d="M332.311 50.6843C332.311 52.2903 333.115 53.1338 334.762 53.1338L335.204 53.1338C336.811 53.1338 337.614 52.2903 337.614 50.6843L337.614 45.5833 332.311 45.5833ZM339.944 43.3743 339.944 50.6037C339.944 53.696 338.338 55.3023 335.244 55.3023L334.681 55.3023C331.547 55.3023 329.981 53.696 329.981 50.6037L329.981 37.9524C329.981 34.8606 331.547 33.2537 334.681 33.2537L335.244 33.2537C338.338 33.2537 339.944 34.8606 339.944 37.9524L339.944 40.3623 337.694 40.3623 337.694 37.8724C337.694 36.2654 336.851 35.4625 335.244 35.4625L334.762 35.4625C333.115 35.4625 332.311 36.2654 332.311 37.8724L332.311 43.3743 339.944 43.3743" fill="#0D526E" transform="matrix(1 0 0 -1.00165 226 562.855)"/><path d="M353.284 47.6718 355.534 47.6718 355.534 50.804C355.534 53.7366 354.088 55.3023 351.034 55.3023L350.471 55.3023C347.378 55.3023 345.891 53.7366 345.891 50.7644L345.891 48.7161C345.891 46.6277 346.614 45.5833 348.302 44.499L351.959 42.2099C352.922 41.6477 353.325 40.9248 353.325 39.8L353.325 37.5914C353.325 36.1458 352.601 35.4219 351.075 35.4219L350.391 35.4219C348.865 35.4219 348.102 36.1458 348.102 37.5914L348.102 41.045 345.852 41.045 345.852 37.7521C345.852 34.8606 347.338 33.2537 350.391 33.2537L351.034 33.2537C354.088 33.2537 355.614 34.8606 355.614 37.7917L355.614 40.0813C355.614 42.1293 354.891 43.2145 353.164 44.2984L349.507 46.5479C348.544 47.1497 348.141 47.8324 348.141 48.9974L348.141 50.9647C348.141 52.4109 348.905 53.1743 350.432 53.1743L350.994 53.1743C352.561 53.1743 353.284 52.4109 353.284 50.9647L353.284 47.6718" fill="#0D526E" transform="matrix(1 0 0 -1.00165 226 562.855)"/><path d="M363.891 50.6843C363.891 52.2903 364.695 53.1338 366.342 53.1338L366.784 53.1338C368.391 53.1338 369.195 52.2903 369.195 50.6843L369.195 45.5833 363.891 45.5833ZM371.525 43.3743 371.525 50.6037C371.525 53.696 369.918 55.3023 366.824 55.3023L366.261 55.3023C363.128 55.3023 361.561 53.696 361.561 50.6037L361.561 37.9524C361.561 34.8606 363.128 33.2537 366.261 33.2537L366.824 33.2537C369.918 33.2537 371.525 34.8606 371.525 37.9524L371.525 40.3623 369.275 40.3623 369.275 37.8724C369.275 36.2654 368.431 35.4625 366.824 35.4625L366.342 35.4625C364.695 35.4625 363.891 36.2654 363.891 37.8724L363.891 43.3743 371.525 43.3743" fill="#0D526E" transform="matrix(1 0 0 -1.00165 226 562.855)"/><path d="M381.61 35.4625 381.569 35.4625C380.324 35.4625 379.681 36.0651 379.681 37.3506L379.681 40.8447C379.681 42.2499 380.123 42.8927 381.53 43.4543L384.824 44.7002 384.824 36.7074C383.538 35.8648 382.615 35.4625 381.61 35.4625ZM377.351 36.9086C377.351 34.5389 378.516 33.2537 380.846 33.2537L380.927 33.2537C382.574 33.2537 383.699 34.0172 384.824 34.9407L384.824 33.4951 387.114 33.4951 387.114 50.7644C387.114 53.7366 385.588 55.3023 382.534 55.3023L382.212 55.3023C379.159 55.3023 377.592 53.7366 377.592 50.7644L377.592 48.0732 379.842 48.0732 379.842 50.8442C379.842 52.3308 380.646 53.1338 382.212 53.1338L382.494 53.1338C384.061 53.1338 384.824 52.3308 384.824 50.8442L384.824 46.8685 380.565 45.302C378.234 44.4189 377.351 43.3743 377.351 40.8843L377.351 36.9086" fill="#0D526E" transform="matrix(1 0 0 -1.00165 226 562.855)"/><path d="M393.422 33.4951 395.712 33.4951 395.712 51.0858C396.717 52.0891 397.802 52.5311 399.408 52.6516L399.408 55.2628C397.721 55.2223 396.676 54.4589 395.712 52.893L395.712 55.0616 393.422 55.0616 393.422 33.4951" fill="#0D526E" transform="matrix(1 0 0 -1.00165 226 562.855)"/><path d="M411.904 47.2702 414.194 47.2702 414.194 50.6843C414.194 53.7366 412.667 55.3023 409.573 55.3023L408.891 55.3023C405.757 55.3023 404.19 53.7366 404.19 50.6037L404.19 37.9524C404.19 34.8606 405.757 33.2537 408.891 33.2537L409.573 33.2537C412.667 33.2537 414.234 34.8606 414.234 37.9524L414.234 41.9686 411.944 41.9686 411.944 37.8724C411.944 36.2258 411.141 35.4625 409.534 35.4625L408.931 35.4625C407.323 35.4625 406.52 36.2258 406.52 37.8724L406.52 50.6843C406.52 52.3308 407.323 53.1338 408.931 53.1338L409.493 53.1338C411.1 53.1338 411.904 52.3308 411.904 50.6843L411.904 47.2702" fill="#0D526E" transform="matrix(1 0 0 -1.00165 226 562.855)"/><path d="M420.422 33.4951 422.712 33.4951 422.712 51.7686C424.038 52.7323 425.002 53.1338 426.087 53.1338L426.126 53.1338C427.453 53.1338 428.135 52.4916 428.135 51.1659L428.135 33.4951 430.426 33.4951 430.426 51.6079C430.426 53.9773 429.22 55.3023 426.81 55.3023L426.689 55.3023C425.002 55.3023 423.877 54.5396 422.712 53.5758L422.712 62.0097 420.422 62.0097 420.422 33.4951" fill="#0D526E" transform="matrix(1 0 0 -1.00165 226 562.855)"/><path d="M453.166 44.1377 453.166 38.0729C453.166 36.3464 452.323 35.5029 450.554 35.5029L449.591 35.5029C447.823 35.5029 446.979 36.3464 446.979 38.0729L446.979 57.0295C446.979 58.7563 447.823 59.5995 449.591 59.5995L450.474 59.5995C452.242 59.5995 453.086 58.7563 453.086 57.0295L453.086 51.8082 455.457 51.8082 455.457 56.9893C455.457 60.2022 453.849 61.849 450.595 61.849L449.51 61.849C446.215 61.849 444.569 60.1621 444.569 56.9488L444.569 38.194C444.569 34.9407 446.215 33.2537 449.51 33.2537L450.595 33.2537C453.889 33.2537 455.537 34.9407 455.537 38.194L455.537 44.1377 453.166 44.1377" fill="#0D526E" transform="matrix(1 0 0 -1.00165 226 562.855)"/><path d="M467.027 53.1338C468.634 53.1338 469.438 52.3308 469.438 50.6843L469.438 37.8724C469.438 36.2258 468.634 35.4625 467.027 35.4625L466.264 35.4625C464.657 35.4625 463.854 36.2258 463.854 37.8724L463.854 50.6843C463.854 52.3308 464.657 53.1338 466.264 53.1338ZM467.068 33.2537C470.161 33.2537 471.728 34.8606 471.728 37.9524L471.728 50.6037C471.728 53.7366 470.161 55.3023 467.068 55.3023L466.224 55.3023C463.09 55.3023 461.523 53.7366 461.523 50.6037L461.523 37.9524C461.523 34.8606 463.09 33.2537 466.224 33.2537L467.068 33.2537" fill="#0D526E" transform="matrix(1 0 0 -1.00165 226 562.855)"/><path d="M487.88 55.0616 485.549 55.0616 485.549 36.7884C484.223 35.8648 483.3 35.4625 482.215 35.4625L482.134 35.4625C480.808 35.4625 480.165 36.0651 480.165 37.3901L480.165 55.0616 477.835 55.0616 477.835 36.9491C477.835 34.5794 479.041 33.2537 481.451 33.2537L481.572 33.2537C483.259 33.2537 484.384 34.0172 485.549 34.9808L485.549 33.4951 487.88 33.4951 487.88 55.0616" fill="#0D526E" transform="matrix(1 0 0 -1.00165 226 562.855)"/><path d="M494.227 33.4951 496.518 33.4951 496.518 51.7686C497.844 52.7323 498.768 53.1338 499.892 53.1338L499.933 53.1338C501.259 53.1338 501.942 52.4916 501.942 51.1659L501.942 33.4951 504.232 33.4951 504.232 51.6079C504.232 53.9773 503.027 55.3023 500.616 55.3023L500.495 55.3023C498.808 55.3023 497.683 54.5396 496.518 53.5758L496.518 55.0616 494.227 55.0616 494.227 33.4951" fill="#0D526E" transform="matrix(1 0 0 -1.00165 226 562.855)"/><path d="M518.053 47.2702 520.343 47.2702 520.343 50.6843C520.343 53.7366 518.816 55.3023 515.723 55.3023L515.04 55.3023C511.906 55.3023 510.339 53.7366 510.339 50.6037L510.339 37.9524C510.339 34.8606 511.906 33.2537 515.04 33.2537L515.723 33.2537C518.816 33.2537 520.384 34.8606 520.384 37.9524L520.384 41.9686 518.093 41.9686 518.093 37.8724C518.093 36.2258 517.289 35.4625 515.683 35.4625L515.08 35.4625C513.473 35.4625 512.669 36.2258 512.669 37.8724L512.669 50.6843C512.669 52.3308 513.473 53.1338 515.08 53.1338L515.642 53.1338C517.25 53.1338 518.053 52.3308 518.053 50.6843L518.053 47.2702" fill="#0D526E" transform="matrix(1 0 0 -1.00165 226 562.855)"/><path d="M526.651 33.4951 528.981 33.4951 528.981 55.0616 526.651 55.0616ZM526.611 57.6316 529.022 57.6316 529.022 60.6837 526.611 60.6837 526.611 57.6316" fill="#0D526E" transform="matrix(1 0 0 -1.00165 226 562.855)"/><path d="M535.53 33.4951 537.861 33.4951 537.861 62.0097 535.53 62.0097 535.53 33.4951" fill="#0D526E" transform="matrix(1 0 0 -1.00165 226 562.855)"/><path d="M463.645 131.856 463.645 76.8032 479.617 76.8032 479.617 81.2071 468.365 81.2071 468.365 131.856 463.645 131.856" fill="#0D526E" transform="matrix(1 0 0 -1.00165 226 562.855)"/><path d="M507.862 80.6563 507.784 80.6563C505.345 80.6563 504.085 81.8357 504.085 84.3531L504.085 91.1953C504.085 93.9473 504.952 95.2061 507.704 96.307L514.156 98.7452 514.156 83.0944C511.639 81.4426 509.829 80.6563 507.862 80.6563ZM499.522 83.4876C499.522 78.8474 501.804 76.3308 506.367 76.3308L506.524 76.3308C509.75 76.3308 511.953 77.8249 514.156 79.6338L514.156 76.8032 518.641 76.8032 518.641 110.621C518.641 116.44 515.651 119.508 509.672 119.508L509.042 119.508C503.063 119.508 499.995 116.44 499.995 110.621L499.995 105.352 504.4 105.352 504.4 110.778C504.4 113.688 505.974 115.261 509.042 115.261L509.593 115.261C512.662 115.261 514.156 113.688 514.156 110.778L514.156 102.992 505.816 99.9247C501.253 98.1951 499.522 96.1501 499.522 91.2738L499.522 83.4876" fill="#0D526E" transform="matrix(1 0 0 -1.00165 226 562.855)"/><path d="M545.313 112.351C547.594 114.238 549.483 115.182 551.686 115.182L551.843 115.182C554.597 115.182 556.092 114.003 556.092 111.25L556.092 84.5886C556.092 81.8357 554.597 80.6563 551.843 80.6563L551.686 80.6563C549.562 80.6563 547.516 81.6788 545.313 83.5661ZM540.828 76.8032 545.313 76.8032 545.313 79.6338C547.359 77.9042 549.64 76.3308 553.023 76.3308L553.181 76.3308C558.059 76.3308 560.576 79.3198 560.576 84.1169L560.576 111.722C560.576 116.519 558.059 119.508 553.181 119.508L553.023 119.508C549.64 119.508 547.359 117.935 545.313 116.126L545.313 132.642 540.828 132.642 540.828 76.8032" fill="#0D526E" transform="matrix(1 0 0 -1.00165 226 562.855)"/><path d="M215.573 102.756 221.159 102.756C225.014 102.756 227.059 100.869 227.059 97.0149L227.059 86.162C227.059 82.7798 225.329 81.1287 221.945 81.1287L215.573 81.1287ZM226.902 122.497 226.902 112.666C226.902 108.89 224.935 107.003 221.001 107.003L215.573 107.003 215.573 127.53 221.788 127.53C225.25 127.53 226.902 125.878 226.902 122.497ZM226.431 104.959C229.656 106.059 231.545 108.576 231.545 113.531L231.545 122.261C231.545 128.631 228.397 131.856 221.867 131.856L210.93 131.856 210.93 76.8032 222.024 76.8032C228.476 76.8032 231.702 80.0269 231.702 86.3974L231.702 96.2286C231.702 101.183 229.735 103.779 226.431 104.959" fill="#23A3CA" transform="matrix(1 0 0 -1.00165 226 562.855)"/><path d="M254.126 76.8032 258.689 76.8032 258.689 119.036 254.126 119.036ZM254.047 124.069 258.768 124.069 258.768 130.047 254.047 130.047 254.047 124.069" fill="#23A3CA" transform="matrix(1 0 0 -1.00165 226 562.855)"/><path d="M291.577 115.261C294.724 115.261 296.297 113.688 296.297 110.464L296.297 85.3757C296.297 82.1512 294.724 80.6563 291.577 80.6563L290.082 80.6563C286.935 80.6563 285.361 82.1512 285.361 85.3757L285.361 110.464C285.361 113.688 286.935 115.261 290.082 115.261ZM291.656 76.3308C297.714 76.3308 300.783 79.4768 300.783 85.5326L300.783 110.307C300.783 116.44 297.714 119.508 291.656 119.508L290.004 119.508C283.866 119.508 280.798 116.44 280.798 110.307L280.798 85.5326C280.798 79.4768 283.866 76.3308 290.004 76.3308L291.656 76.3308" fill="#23A3CA" transform="matrix(1 0 0 -1.00165 226 562.855)"/><path d="M333.748 76.8032 333.748 127.452 342.403 127.452 342.403 131.856 320.374 131.856 320.374 127.452 329.028 127.452 329.028 76.8032 333.748 76.8032" fill="#23A3CA" transform="matrix(1 0 0 -1.00165 226 562.855)"/><path d="M363.41 110.464C363.41 113.61 364.984 115.261 368.21 115.261L369.075 115.261C372.223 115.261 373.796 113.61 373.796 110.464L373.796 100.476 363.41 100.476ZM378.36 96.1501 378.36 110.307C378.36 116.362 375.213 119.508 369.155 119.508L368.053 119.508C361.916 119.508 358.847 116.362 358.847 110.307L358.847 85.5326C358.847 79.4768 361.916 76.3308 368.053 76.3308L369.155 76.3308C375.213 76.3308 378.36 79.4768 378.36 85.5326L378.36 90.2512 373.954 90.2512 373.954 85.3757C373.954 82.2296 372.301 80.6563 369.155 80.6563L368.21 80.6563C364.984 80.6563 363.41 82.2296 363.41 85.3757L363.41 96.1501 378.36 96.1501" fill="#23A3CA" transform="matrix(1 0 0 -1.00165 226 562.855)"/><path d="M414.946 103.779 419.43 103.779 419.43 110.464C419.43 116.44 416.441 119.508 410.383 119.508L409.045 119.508C402.908 119.508 399.84 116.44 399.84 110.307L399.84 85.5326C399.84 79.4768 402.908 76.3308 409.045 76.3308L410.383 76.3308C416.441 76.3308 419.509 79.4768 419.509 85.5326L419.509 93.3972 415.025 93.3972 415.025 85.3757C415.025 82.1512 413.451 80.6563 410.304 80.6563L409.124 80.6563C405.977 80.6563 404.403 82.1512 404.403 85.3757L404.403 110.464C404.403 113.688 405.977 115.261 409.124 115.261L410.226 115.261C413.372 115.261 414.946 113.688 414.946 110.464L414.946 103.779" fill="#23A3CA" transform="matrix(1 0 0 -1.00165 226 562.855)"/><path d="M143.836 119.036 139.273 119.036 139.273 83.2514C136.676 81.4426 134.867 80.6563 132.742 80.6563L132.585 80.6563C129.988 80.6563 128.729 81.8357 128.729 84.4316L128.729 119.036 124.166 119.036 124.166 83.5661C124.166 78.9267 126.527 76.3308 131.248 76.3308L131.483 76.3308C134.788 76.3308 136.991 77.8249 139.273 79.713L139.273 76.8032 143.836 76.8032 143.836 119.036" fill="#0D526E" transform="matrix(1 0 0 -1.00165 226 562.855)"/><path d="M173.813 80.6563 173.734 80.6563C171.295 80.6563 170.037 81.8357 170.037 84.3531L170.037 91.1953C170.037 93.9473 170.901 95.2061 173.656 96.307L180.107 98.7452 180.107 83.0944C177.59 81.4426 175.78 80.6563 173.813 80.6563ZM165.473 83.4876C165.473 78.8474 167.755 76.3308 172.318 76.3308L172.476 76.3308C175.702 76.3308 177.904 77.8249 180.107 79.6338L180.107 76.8032 184.592 76.8032 184.592 110.621C184.592 116.44 181.602 119.508 175.622 119.508L174.993 119.508C169.013 119.508 165.945 116.44 165.945 110.621L165.945 105.352 170.351 105.352 170.351 110.778C170.351 113.688 171.925 115.261 174.993 115.261L175.544 115.261C178.612 115.261 180.107 113.688 180.107 110.778L180.107 102.992 171.767 99.9247C167.204 98.1951 165.473 96.1501 165.473 91.2738L165.473 83.4876" fill="#0D526E" transform="matrix(1 0 0 -1.00165 226 562.855)"/><path d="M103.556 110.464C103.556 113.688 101.983 115.261 98.8359 115.261L97.7341 115.261C94.5866 115.261 93.0132 113.688 93.0132 110.464L93.0132 102.902 88.45 98.3406 88.45 110.307C88.45 116.44 91.5183 119.508 97.6549 119.508L98.9928 119.508C105.051 119.508 108.041 116.44 108.041 110.464L108.041 103.779 103.556 103.779 103.556 110.464" fill="#23A3CA" fill-rule="evenodd" transform="matrix(1 0 0 -1.00165 226 562.855)"/><path d="M93.078 98.3551 93.078 85.3757C93.078 82.1512 94.6521 80.6563 97.7989 80.6563L98.9791 80.6563C102.127 80.6563 103.7 82.1512 103.7 85.3757L103.7 93.3972 108.185 93.3972 108.185 85.5326C108.185 79.4768 105.116 76.3308 99.0576 76.3308L97.7204 76.3308C91.5831 76.3308 88.5148 79.4768 88.5148 85.5326L88.5148 93.7934 93.078 98.3551" fill="#0D526E" fill-rule="evenodd" transform="matrix(1 0 0 -1.00165 226 562.855)"/><path d="M66.2316 123.629 71.4243 90.9911 61.1174 90.9911ZM69.1427 131.415 63.4779 131.415 54.2723 76.2051 58.8358 76.2051 60.4094 86.5864 72.1326 86.5864 73.7848 76.2051 78.3484 76.2051 69.1427 131.415" fill="#0D526E" transform="matrix(1 0 0 -1.00165 226 562.855)"/><path d="M599.844 257.604C592.541 284.618 535.758 394.596 421.271 396.819 424.3 380.391 427.3 361.124 427.994 345.975 417.135 347.974 409.002 347.163 400.295 346.374 400.138 368.043 398.129 384.914 396.07 395.601 390.008 394.909 383.803 393.923 377.457 392.615 378.491 381.078 378.909 368.521 378.582 356.193 366.815 354.767 352.258 350.327 344.337 345.975 345.697 361.688 346.225 374.417 346.374 383.976 339.924 381.747 333.787 379.402 327.937 376.954 327.885 349.59 322.597 310.839 321.276 310.092 300.256 303.985 295.12 300.025 290.454 296.879 298.183 326.219 299.913 348.22 299.619 363.173 293.802 359.903 288.321 356.523 283.134 353.054 281.29 340.59 277.949 326.922 271.929 309.911 263.419 305.94 250.968 300.876 244.469 295.781 250.051 311.502 253.742 323.372 256.181 332.254 211.55 292.879 190.561 248.604 142.087 226.338 90.3137 202.555 47.5664 233.157 47.5664 233.157 13.7543 264.287 43.7906 299.798 62.7925 250.179 73.7339 221.608 93.7508 220.328 108.764 224.383 108.813 230.743 107.398 250.096 92.6193 288.874 92.6193 288.874 101.613 290.57 107.705 296.663 107.705 296.663 113.764 285.832 129.821 234.15 134.524 236.788 139.104 240.141 143.621 244.094 127.344 293.795 110.229 324.97 110.229 324.97 119.643 327.837 123.999 333.035 123.999 333.035 134.448 312.667 151.32 273.706 157.823 258.526 208.485 316.521 258.827 436.168 394.467 444.246 490.224 449.949 569.476 376.098 590.563 315.099 595.442 301.983 595.62 285.801 595.62 285.801 595.62 285.801 600.543 266.825 599.844 257.604" fill="url(#fill1)" fill-rule="evenodd" transform="matrix(1 0 0 -1.00165 226 562.855)"/><path d="M598.912 296.773C595.489 310.279 586.503 326.477 580.26 338.082 584.073 332.303 593.096 311.211 588.703 290.55 585.009 273.176 579.852 266.879 577.563 264.465 575.643 262.449 565.402 254.429 550.545 249.067 516.627 236.824 550.97 187.3 586.514 228.09 586.514 228.09 610.301 251.837 598.912 296.773" fill="url(#fill2)" fill-rule="evenodd" transform="matrix(1 0 0 -1.00165 226 562.855)"/><path d="M377.94 426.185C365.34 422.647 357.985 419.965 334.986 408.63 282.407 382.72 243.355 323.237 222.361 297.815 222.286 297.724 222.227 297.635 222.184 297.548 197.127 269.133 176.556 242.171 142.087 226.338 90.3137 202.555 47.5664 233.157 47.5664 233.157 13.7543 264.287 43.7906 299.798 62.7925 250.179 73.7339 221.608 93.7508 220.328 108.764 224.383 108.813 230.743 107.398 250.096 92.6193 288.874 92.6193 288.874 101.613 290.57 107.705 296.663 107.705 296.663 113.764 285.832 129.821 234.15 134.582 236.822 139.149 240.198 143.597 244.165 127.327 293.825 110.229 324.97 110.229 324.97 119.643 327.837 123.999 333.035 123.999 333.035 134.363 312.834 151.044 274.342 157.661 258.904 205.441 315.898 248.515 430.983 391.381 444.233 417.01 446.611 441.833 442.228 464.742 434.215 446.827 436.722 417.447 437.278 377.94 426.185" fill="url(#fill3)" fill-rule="evenodd" transform="matrix(1 0 0 -1.00165 226 562.855)"/><path d="M377.601 343.621C377.599 343.621 377.597 343.62 377.594 343.62 377.596 343.644 377.598 343.645 377.601 343.621ZM445.954 176.15 449.468 169.724C416.064 150.71 367.901 137.733 299.09 153.019 177.488 180.032 144.015 346.924 94.7161 388.943 94.7161 388.943 94.1904 389.393 93.2151 390.065 97.5787 383.43 106.026 369.151 118.715 341.679 118.715 341.679 112.914 336.036 105.384 333.669 105.384 333.669 81.0014 378.084 68.6165 395.302 65.0066 394.529 61.1763 393.011 57.2301 390.431 65.9229 376.097 89.2348 336.833 102.915 305.965 102.915 305.965 97.5345 300.895 88.8714 297.736 88.8714 297.736 69.2584 341.371 39.7054 371.729 13.2123 335.045-26.9351 394.554 25.8502 418.041 25.8502 418.041 69.2269 436.201 109.628 405.137 158.872 367.273 160.061 306.173 223.396 251.113 228.537 259.013 235.166 270.453 240.501 283.857 240.501 283.857 255.081 292.069 268.808 296.858 268.808 296.858 261.668 262.962 246.133 233.588 250.21 230.796 254.487 228.028 258.985 225.289 261.06 224.025 263.137 222.82 265.215 221.669 271.802 234.275 280.66 255.243 286.201 284.546 286.201 284.546 299.189 292.277 317.972 296.201 317.972 296.201 308.679 243.427 294.76 208.886 303.881 205.981 312.942 204.01 321.878 202.824 328.631 226.74 340.44 275.744 343.116 333.801 343.116 333.801 360.401 341.855 377.594 343.62 377.55 342.457 380.081 287.411 364.943 202.752 376.019 204.112 386.672 206.44 396.744 209.391 403.06 251.119 399.712 336.596 399.712 336.596 426.883 338.511 427.649 334.712 427.891 334.28 431.764 308.412 432.961 247.411 433.288 223.59 451.798 232.571 466.326 242.423 475.078 249.296L480.838 258.841C480.838 258.841 471.61 263.084 476.775 267.202 478.219 268.482 480.21 270.139 482.446 271.698 482.644 271.836 482.844 271.974 483.046 272.11 490.312 277.683 498.933 283.883 505.8 287.612 504.368 271.419 495.26 198.801 445.954 176.15" fill="url(#fill4)" fill-rule="evenodd" transform="matrix(1 0 0 -1.00165 226 562.855)"/><path d="M377.601 344.354C377.599 344.354 377.597 344.354 377.595 344.354 377.596 344.378 377.598 344.379 377.601 344.354ZM460.338 176.549C457.861 174.946 455.271 173.357 452.572 171.797 451.48 171.223 450.369 170.674 449.239 170.155L449.342 169.975C428.765 156.969 411.717 151.54 385.746 148.247 378.466 147.367 371.684 147.982 371.633 147.976 371.633 147.976 271.535 157.674 184.765 294.575 184.234 295.412 184.23 295.404 184.215 295.425 196.454 278.133 203.494 269.148 223.396 251.846 228.537 259.747 235.167 271.186 240.501 284.59 240.501 284.59 255.081 292.803 268.809 297.592 268.809 297.592 261.668 263.696 246.133 234.322 250.21 231.53 254.487 228.762 258.985 226.023 261.062 224.758 263.137 223.551 265.211 222.396 271.799 235.001 280.66 255.972 286.201 285.28 286.201 285.28 299.189 293.011 317.972 296.935 317.972 296.935 308.647 243.976 294.687 209.437 303.834 206.437 312.876 204.381 321.754 203.12 328.487 226.873 340.424 276.121 343.117 334.536 343.117 334.536 360.401 342.589 377.595 344.354 377.55 343.187 380.094 287.854 364.823 202.813 375.982 204.181 386.647 206.576 396.666 209.619 403.089 251.158 399.712 337.33 399.712 337.33 426.883 339.244 427.649 335.446 427.892 335.014 431.753 309.223 432.954 248.508 433.285 224.537 448.96 232.583 461.37 241.167 469.373 247.451L484.02 260.837C484.02 260.837 471.61 263.818 476.775 267.936 478.22 269.215 480.211 270.873 482.446 272.431 482.645 272.57 482.844 272.707 483.047 272.844 493.203 280.634 506.012 289.653 512.971 291.429L513.04 290.077C513.04 290.077 505.973 208.578 460.338 176.549" fill="url(#fill5)" fill-rule="evenodd" transform="matrix(1 0 0 -1.00165 226 562.855)"/><path d="M96.1204 398.778C76.9982 400.477 68.4064 395.821 65.6214 393.769 57.9533 391.15 49.498 384.976 41.1554 372.529 14.6915 333.049-27.4285 395.019 25.9904 418.787 25.9904 418.787 70.3017 437.761 110.66 404.882 122.335 395.37 131.181 384.85 139.041 373.357 134.281 379.13 118.862 396.756 96.1204 398.778" fill="url(#fill6)" fill-rule="evenodd" transform="matrix(1 0 0 -1.00165 226 562.855)"/><path d="M477.166 185.905C462.903 174.284 447.808 166.405 431.938 160.283 440.137 164.325 464.063 178.205 474.203 204.191 483.909 229.066 480.005 238.473 479.592 241.55 477.052 255.671 470.874 263.504 458.416 276.916 418.9 319.461 502.738 352.1 516.01 281.91 516.01 281.91 525.434 225.234 477.166 185.905" fill="url(#fill7)" fill-rule="evenodd" transform="matrix(1 0 0 -1.00165 226 562.855)"/><path d="M116.31 226.732C138.721 222.371 158.421 235.032 164.595 239.259 153.858 230.395 142.179 222.79 128.164 217.279 80.7355 198.632 44.0924 228.106 44.0924 228.106-0.645556 265.751 56.2911 312.459 70.7743 267.189 75.3399 252.919 81.8959 244.732 87.6112 239.352 89.3743 237.766 97.4675 230.4 116.31 226.732" fill="url(#fill8)" fill-rule="evenodd" transform="matrix(1 0 0 -1.00165 226 562.855)"/><path d="M486.204 304.351C492.751 304.351 498.058 299.043 498.058 292.496 498.058 285.949 492.751 280.641 486.204 280.641 479.657 280.641 474.35 285.949 474.35 292.496 474.35 299.043 479.657 304.351 486.204 304.351" fill="#FFFFFF" fill-rule="evenodd" transform="matrix(1 0 0 -1.00165 226 562.855)"/></g></svg>